<svg xmlns="http://www.w3.org/2000/svg" width="480" height="679" fill="none"><path fill="#fff" d="M.5 35.5h479V663c0 8.56-6.94 15.5-15.5 15.5H16C7.44 678.5.5 671.56.5 663V35.5z"/><path fill="#002C15" d="M101.51 80.435h-3.188a3.965 3.965 0 0 0-.503-1.39 3.735 3.735 0 0 0-.912-1.04 3.8 3.8 0 0 0-1.244-.638 4.855 4.855 0 0 0-1.492-.222c-.948 0-1.79.239-2.522.716-.733.471-1.307 1.165-1.722 2.08-.415.908-.622 2.02-.622 3.332 0 1.335.207 2.46.622 3.375.42.909.994 1.596 1.722 2.062.733.46 1.57.69 2.514.69.523 0 1.011-.068 1.466-.204.46-.142.872-.35 1.236-.622a3.797 3.797 0 0 0 1.457-2.37l3.188.018a6.874 6.874 0 0 1-.776 2.335 6.884 6.884 0 0 1-1.543 1.926 7.115 7.115 0 0 1-2.233 1.295c-.852.307-1.798.46-2.838.46-1.534 0-2.903-.355-4.108-1.065-1.204-.71-2.153-1.736-2.846-3.076-.693-1.341-1.04-2.95-1.04-4.824 0-1.881.35-3.489 1.048-4.824.7-1.341 1.65-2.367 2.855-3.077s2.569-1.065 4.091-1.065c.972 0 1.875.136 2.71.409a6.94 6.94 0 0 1 2.234 1.202 6.387 6.387 0 0 1 1.61 1.926c.426.755.705 1.62.836 2.59zM103.269 92V78.91h2.991v2.18h.137c.238-.755.647-1.337 1.227-1.746a3.378 3.378 0 0 1 2.003-.622c.17 0 .361.008.571.025.216.011.395.031.537.06v2.838a3.246 3.246 0 0 0-.622-.12 5.736 5.736 0 0 0-.81-.06 3.12 3.12 0 0 0-1.517.367 2.678 2.678 0 0 0-1.048.998c-.256.426-.384.917-.384 1.474V92h-3.085zm13.772.256c-1.313 0-2.446-.273-3.401-.819a5.537 5.537 0 0 1-2.19-2.335c-.511-1.011-.767-2.201-.767-3.57 0-1.347.256-2.53.767-3.546.517-1.023 1.239-1.818 2.165-2.387.926-.573 2.014-.86 3.264-.86.807 0 1.568.13 2.284.392a5.157 5.157 0 0 1 1.909 1.193c.557.54.994 1.227 1.313 2.062.318.83.477 1.819.477 2.966v.946h-10.73v-2.08h7.772c-.005-.59-.133-1.116-.383-1.576a2.787 2.787 0 0 0-1.048-1.1c-.444-.266-.961-.4-1.551-.4-.631 0-1.185.154-1.662.46-.478.301-.85.7-1.117 1.194a3.429 3.429 0 0 0-.4 1.61v1.816c0 .761.139 1.414.417 1.96.279.54.668.954 1.168 1.244.5.284 1.085.426 1.755.426.449 0 .856-.062 1.219-.187a2.7 2.7 0 0 0 .946-.571c.267-.25.469-.56.605-.93l2.881.325a4.487 4.487 0 0 1-1.04 1.994c-.505.563-1.153 1-1.943 1.313-.79.306-1.693.46-2.71.46zm11.198.008c-.83 0-1.577-.147-2.241-.443a3.659 3.659 0 0 1-1.569-1.33c-.38-.585-.571-1.306-.571-2.164 0-.739.137-1.35.409-1.833a3.167 3.167 0 0 1 1.117-1.159 5.626 5.626 0 0 1 1.594-.656 12.953 12.953 0 0 1 1.849-.332c.767-.08 1.389-.151 1.867-.213.477-.069.823-.17 1.039-.307.222-.142.333-.361.333-.656v-.052c0-.642-.191-1.139-.571-1.491-.381-.352-.929-.529-1.645-.529-.756 0-1.355.165-1.799.495-.437.33-.732.719-.886 1.167l-2.881-.409c.228-.795.603-1.46 1.125-1.994a4.895 4.895 0 0 1 1.918-1.21c.756-.273 1.591-.41 2.506-.41.63 0 1.258.075 1.883.222a5.3 5.3 0 0 1 1.713.733 3.69 3.69 0 0 1 1.245 1.372c.318.58.477 1.304.477 2.174V92h-2.966v-1.798h-.102a3.777 3.777 0 0 1-.793 1.022c-.335.313-.758.566-1.27.759-.505.188-1.099.281-1.781.281zm.801-2.267c.619 0 1.156-.122 1.611-.366a2.71 2.71 0 0 0 1.048-.989c.25-.409.375-.855.375-1.338v-1.543c-.096.08-.261.154-.494.222a6.997 6.997 0 0 1-.767.179c-.284.051-.565.096-.844.136l-.724.103a5.381 5.381 0 0 0-1.236.306 2.047 2.047 0 0 0-.861.597c-.21.25-.315.574-.315.972 0 .568.207.997.622 1.287.415.29.943.434 1.585.434zm14.75-11.088v2.386h-7.525V78.91h7.525zm-5.667-3.136h3.085v12.29c0 .414.062.733.187.954.131.216.301.364.512.443.21.08.443.12.698.12.194 0 .37-.015.529-.043.165-.029.29-.054.375-.077l.52 2.412c-.165.057-.401.12-.708.188-.301.068-.67.108-1.108.119-.772.023-1.468-.094-2.088-.35a3.25 3.25 0 0 1-1.474-1.21c-.358-.545-.534-1.227-.528-2.045V75.773zm12.902 16.483c-1.312 0-2.446-.273-3.4-.819a5.545 5.545 0 0 1-2.191-2.335c-.511-1.011-.767-2.201-.767-3.57 0-1.347.256-2.53.767-3.546.517-1.023 1.239-1.818 2.165-2.387.926-.573 2.014-.86 3.264-.86.807 0 1.568.13 2.284.392a5.157 5.157 0 0 1 1.909 1.193c.557.54.995 1.227 1.313 2.062.318.83.477 1.819.477 2.966v.946h-10.73v-2.08h7.773c-.006-.59-.134-1.116-.384-1.576a2.787 2.787 0 0 0-1.048-1.1c-.443-.266-.96-.4-1.551-.4-.631 0-1.185.154-1.662.46a3.181 3.181 0 0 0-1.117 1.194 3.44 3.44 0 0 0-.4 1.61v1.816c0 .761.139 1.414.418 1.96.278.54.667.954 1.167 1.244.5.284 1.085.426 1.756.426.449 0 .855-.062 1.219-.187a2.71 2.71 0 0 0 .946-.571c.267-.25.468-.56.605-.93l2.88.325a4.485 4.485 0 0 1-1.039 1.994c-.506.563-1.154 1-1.944 1.313-.789.306-1.693.46-2.71.46zm14.302 4.653c-.42 0-.81-.034-1.168-.102a4.31 4.31 0 0 1-.843-.222l.716-2.403c.448.13.849.193 1.201.187.353-.005.662-.116.929-.332.273-.21.503-.563.691-1.057l.264-.707-4.747-13.364h3.272l3.017 9.886h.137l3.025-9.886h3.282l-5.242 14.676a5.88 5.88 0 0 1-.971 1.782c-.404.5-.898.88-1.483 1.141-.58.268-1.273.401-2.08.401zm16.175-4.653c-1.278 0-2.386-.282-3.323-.844-.938-.563-1.665-1.35-2.182-2.36-.512-1.012-.767-2.194-.767-3.546 0-1.353.255-2.537.767-3.554.517-1.017 1.244-1.807 2.182-2.37.937-.562 2.045-.843 3.323-.843 1.279 0 2.387.28 3.324.843.938.563 1.662 1.353 2.174 2.37.517 1.017.775 2.201.775 3.554 0 1.352-.258 2.534-.775 3.545-.512 1.011-1.236 1.798-2.174 2.36-.937.563-2.045.845-3.324.845zm.018-2.472c.693 0 1.272-.19 1.738-.57.466-.387.813-.904 1.04-1.552.233-.648.349-1.37.349-2.165 0-.801-.116-1.525-.349-2.173-.227-.653-.574-1.173-1.04-1.56-.466-.386-1.045-.58-1.738-.58-.711 0-1.302.194-1.773.58-.466.387-.816.907-1.048 1.56-.228.648-.341 1.372-.341 2.173 0 .796.113 1.517.341 2.165.232.648.582 1.165 1.048 1.551.471.38 1.062.571 1.773.571zm16.218-3.29V78.91h3.085V92h-2.992v-2.327h-.136a3.934 3.934 0 0 1-1.457 1.799c-.671.466-1.498.699-2.481.699-.857 0-1.616-.19-2.275-.572-.654-.386-1.165-.946-1.534-1.678-.37-.74-.554-1.631-.554-2.677V78.91h3.085v7.858c0 .83.227 1.489.682 1.977.454.489 1.051.733 1.79.733.454 0 .895-.11 1.321-.332a2.688 2.688 0 0 0 1.048-.989c.278-.443.418-.997.418-1.662zM202.995 92V78.91h2.992v2.18h.136c.239-.755.648-1.337 1.227-1.746a3.38 3.38 0 0 1 2.003-.622c.171 0 .361.008.571.025.216.011.395.031.537.06v2.838a3.23 3.23 0 0 0-.622-.12 5.714 5.714 0 0 0-.81-.06c-.562 0-1.068.123-1.517.367a2.684 2.684 0 0 0-1.048.998c-.256.426-.383.917-.383 1.474V92h-3.086zm13.605 0V74.546h6.546c1.341 0 2.466.25 3.375.75.915.5 1.605 1.187 2.071 2.062.472.87.707 1.858.707 2.966 0 1.12-.235 2.114-.707 2.983-.472.87-1.168 1.554-2.088 2.054-.921.494-2.054.741-3.401.741h-4.338v-2.6h3.912c.784 0 1.426-.135 1.926-.408.5-.273.87-.648 1.108-1.125.245-.477.367-1.026.367-1.645 0-.62-.122-1.165-.367-1.636-.238-.472-.611-.839-1.116-1.1-.5-.267-1.145-.4-1.935-.4h-2.898V92H216.6zm17.842.264c-.829 0-1.577-.147-2.241-.443a3.664 3.664 0 0 1-1.569-1.33c-.38-.585-.571-1.306-.571-2.164 0-.739.137-1.35.41-1.833a3.157 3.157 0 0 1 1.116-1.159 5.638 5.638 0 0 1 1.594-.656 12.953 12.953 0 0 1 1.849-.332c.767-.08 1.389-.151 1.867-.213.477-.069.824-.17 1.039-.307.222-.142.333-.361.333-.656v-.052c0-.642-.191-1.139-.571-1.491-.381-.352-.929-.529-1.645-.529-.756 0-1.355.165-1.798.495-.438.33-.733.719-.887 1.167l-2.88-.409c.227-.795.602-1.46 1.125-1.994a4.892 4.892 0 0 1 1.917-1.21c.756-.273 1.591-.41 2.506-.41.631 0 1.258.075 1.883.222a5.3 5.3 0 0 1 1.713.733 3.68 3.68 0 0 1 1.245 1.372c.318.58.477 1.304.477 2.174V92h-2.966v-1.798h-.102a3.777 3.777 0 0 1-.793 1.022c-.335.313-.758.566-1.27.759-.505.188-1.099.281-1.781.281zm.801-2.267c.62 0 1.157-.122 1.611-.366.455-.25.804-.58 1.048-.989.25-.409.375-.855.375-1.338v-1.543c-.096.08-.261.154-.494.222a6.997 6.997 0 0 1-.767.179c-.284.051-.565.096-.844.136l-.724.103c-.46.062-.872.164-1.236.306s-.651.341-.861.597c-.21.25-.315.574-.315.972 0 .568.207.997.622 1.287.415.29.943.434 1.585.434zm9.662 6.912a6.26 6.26 0 0 1-1.167-.102 4.303 4.303 0 0 1-.844-.222l.716-2.403c.449.13.849.193 1.201.187.353-.005.662-.116.929-.332.273-.21.503-.563.691-1.057l.264-.707-4.747-13.364h3.273l3.017 9.886h.136l3.026-9.886h3.281l-5.242 14.676a5.88 5.88 0 0 1-.971 1.782c-.404.5-.898.88-1.483 1.141-.58.268-1.273.401-2.08.401zM255.816 92V78.91h2.949v2.224h.153c.273-.75.724-1.336 1.355-1.756.631-.426 1.384-.64 2.259-.64.886 0 1.633.216 2.241.648a3.386 3.386 0 0 1 1.296 1.748h.136a3.577 3.577 0 0 1 1.466-1.74c.693-.437 1.514-.655 2.463-.655 1.204 0 2.187.38 2.949 1.142.761.761 1.142 1.872 1.142 3.332V92h-3.094v-8.31c0-.812-.216-1.406-.648-1.78-.432-.382-.96-.572-1.585-.572-.744 0-1.327.233-1.747.699-.415.46-.622 1.06-.622 1.798V92h-3.026v-8.438c0-.676-.204-1.215-.613-1.619-.404-.403-.932-.605-1.586-.605a2.24 2.24 0 0 0-1.21.341 2.375 2.375 0 0 0-.869.946c-.216.403-.324.875-.324 1.415V92h-3.085zm20.539 0V78.91h3.085V92h-3.085zm1.551-14.949c-.489 0-.909-.162-1.261-.486-.353-.33-.529-.724-.529-1.184 0-.466.176-.861.529-1.185a1.78 1.78 0 0 1 1.261-.494c.494 0 .915.165 1.261.494.353.324.529.719.529 1.185 0 .46-.176.855-.529 1.184a1.779 1.779 0 0 1-1.261.486zm6.792 7.278V92h-3.085V78.91h2.948v2.224h.154a3.74 3.74 0 0 1 1.44-1.748c.665-.431 1.486-.647 2.463-.647.904 0 1.691.193 2.361.58.676.385 1.199.945 1.568 1.678.375.733.56 1.622.554 2.668V92h-3.085v-7.858c0-.875-.227-1.56-.682-2.054-.449-.494-1.071-.741-1.866-.741-.54 0-1.02.119-1.441.358a2.489 2.489 0 0 0-.98 1.014c-.233.443-.349.98-.349 1.61zm17.077-5.42v2.386h-7.526V78.91h7.526zm-5.668-3.136h3.085v12.29c0 .414.063.733.188.954.13.216.301.364.511.443.21.08.443.12.699.12.193 0 .369-.015.528-.043.165-.029.29-.054.375-.077l.52 2.412c-.165.057-.4.12-.707.188a5.805 5.805 0 0 1-1.108.119c-.773.023-1.469-.094-2.088-.35a3.247 3.247 0 0 1-1.475-1.21c-.358-.545-.534-1.227-.528-2.045V75.773zm15.968 16.491c-.83 0-1.577-.147-2.242-.443a3.662 3.662 0 0 1-1.568-1.33c-.38-.585-.571-1.306-.571-2.164 0-.739.137-1.35.409-1.833a3.167 3.167 0 0 1 1.117-1.159 5.626 5.626 0 0 1 1.594-.656 12.953 12.953 0 0 1 1.849-.332c.767-.08 1.389-.151 1.866-.213.478-.069.824-.17 1.04-.307.222-.142.333-.361.333-.656v-.052c0-.642-.191-1.139-.571-1.491-.381-.352-.929-.529-1.645-.529-.756 0-1.355.165-1.799.495-.437.33-.733.719-.886 1.167l-2.881-.409c.228-.795.603-1.46 1.125-1.994a4.895 4.895 0 0 1 1.918-1.21c.756-.273 1.591-.41 2.506-.41.63 0 1.258.075 1.883.222a5.3 5.3 0 0 1 1.713.733 3.69 3.69 0 0 1 1.245 1.372c.318.58.477 1.304.477 2.174V92h-2.966v-1.798h-.102a3.777 3.777 0 0 1-.793 1.022c-.335.313-.758.566-1.27.759-.506.188-1.099.281-1.781.281zm.801-2.267c.619 0 1.156-.122 1.611-.366a2.71 2.71 0 0 0 1.048-.989c.25-.409.375-.855.375-1.338v-1.543c-.096.08-.261.154-.494.222a6.997 6.997 0 0 1-.767.179c-.284.051-.566.096-.844.136l-.724.103a5.368 5.368 0 0 0-1.236.306 2.047 2.047 0 0 0-.861.597c-.21.25-.315.574-.315.972 0 .568.207.997.622 1.287.415.29.943.434 1.585.434zm13.923 2.259c-1.306 0-2.429-.287-3.366-.861a5.742 5.742 0 0 1-2.156-2.378c-.5-1.017-.75-2.188-.75-3.511 0-1.33.255-2.503.767-3.52.511-1.023 1.233-1.818 2.164-2.387.938-.573 2.046-.86 3.324-.86 1.063 0 2.003.196 2.821.588.824.386 1.48.934 1.969 1.645.489.704.767 1.528.835 2.471h-2.949a2.816 2.816 0 0 0-.852-1.576c-.443-.427-1.037-.64-1.781-.64-.631 0-1.185.17-1.662.512-.477.335-.849.818-1.116 1.448-.262.631-.393 1.387-.393 2.267 0 .893.131 1.66.393 2.302.261.636.627 1.127 1.099 1.474.477.341 1.037.511 1.679.511a2.81 2.81 0 0 0 1.219-.255c.363-.176.667-.43.912-.759.244-.33.412-.73.502-1.201h2.949c-.074.926-.346 1.747-.818 2.463-.471.71-1.114 1.267-1.926 1.67-.813.398-1.767.597-2.864.597zm12.852 0c-1.307 0-2.429-.287-3.367-.861a5.755 5.755 0 0 1-2.156-2.378c-.5-1.017-.75-2.188-.75-3.511 0-1.33.256-2.503.767-3.52.512-1.023 1.233-1.818 2.165-2.387.938-.573 2.045-.86 3.324-.86 1.062 0 2.003.196 2.821.588.824.386 1.48.934 1.969 1.645.488.704.767 1.528.835 2.471h-2.949a2.816 2.816 0 0 0-.852-1.576c-.443-.427-1.037-.64-1.782-.64-.63 0-1.184.17-1.661.512-.478.335-.85.818-1.117 1.448-.261.631-.392 1.387-.392 2.267 0 .893.131 1.66.392 2.302.261.636.628 1.127 1.1 1.474.477.341 1.036.511 1.678.511.455 0 .861-.085 1.219-.255a2.45 2.45 0 0 0 .912-.759c.244-.33.412-.73.503-1.201h2.949c-.074.926-.347 1.747-.818 2.463-.472.71-1.114 1.267-1.926 1.67-.813.398-1.767.597-2.864.597zm12.851 0c-1.278 0-2.386-.282-3.323-.844-.938-.563-1.665-1.35-2.182-2.36-.512-1.012-.767-2.194-.767-3.546 0-1.353.255-2.537.767-3.554.517-1.017 1.244-1.807 2.182-2.37.937-.562 2.045-.843 3.323-.843 1.279 0 2.387.28 3.324.843.938.563 1.662 1.353 2.174 2.37.517 1.017.775 2.201.775 3.554 0 1.352-.258 2.534-.775 3.545-.512 1.011-1.236 1.798-2.174 2.36-.937.563-2.045.845-3.324.845zm.018-2.472c.693 0 1.272-.19 1.738-.57.466-.387.813-.904 1.04-1.552.233-.648.349-1.37.349-2.165 0-.801-.116-1.525-.349-2.173-.227-.653-.574-1.173-1.04-1.56-.466-.386-1.045-.58-1.738-.58-.711 0-1.302.194-1.773.58-.466.387-.816.907-1.048 1.56-.228.648-.341 1.372-.341 2.173 0 .796.113 1.517.341 2.165.232.648.582 1.165 1.048 1.551.471.38 1.062.571 1.773.571zm16.218-3.29V78.91h3.085V92h-2.992v-2.327h-.136a3.934 3.934 0 0 1-1.457 1.799c-.671.466-1.498.699-2.481.699-.857 0-1.616-.19-2.275-.572-.654-.386-1.165-.946-1.534-1.678-.37-.74-.554-1.631-.554-2.677V78.91h3.085v7.858c0 .83.227 1.489.682 1.977.454.489 1.051.733 1.79.733.454 0 .895-.11 1.321-.332a2.688 2.688 0 0 0 1.048-.989c.278-.443.418-.997.418-1.662zm8.343-2.165V92h-3.086V78.91h2.949v2.224h.154a3.74 3.74 0 0 1 1.44-1.748c.665-.431 1.486-.647 2.463-.647.903 0 1.69.193 2.361.58.676.385 1.199.945 1.568 1.678.375.733.56 1.622.554 2.668V92h-3.085v-7.858c0-.875-.227-1.56-.682-2.054-.449-.494-1.071-.741-1.867-.741-.539 0-1.019.119-1.44.358a2.483 2.483 0 0 0-.98 1.014c-.233.443-.349.98-.349 1.61zm17.076-5.42v2.386h-7.525V78.91h7.525zm-5.667-3.136h3.085v12.29c0 .414.062.733.187.954.131.216.302.364.512.443.21.08.443.12.699.12.193 0 .369-.015.528-.043.165-.029.29-.054.375-.077l.52 2.412a6.83 6.83 0 0 1-.707.188 5.815 5.815 0 0 1-1.108.119c-.773.023-1.469-.094-2.088-.35a3.247 3.247 0 0 1-1.475-1.21c-.358-.545-.534-1.227-.528-2.045V75.773z"/><path fill="#6A6C6A" d="M135.651 128h-1.293l3.739-10.182h1.272L143.108 128h-1.293l-3.042-8.571h-.08L135.651 128zm.477-3.977h5.21v1.093h-5.21v-1.093zm9.33-6.205V128h-1.173v-10.182h1.173zM147.357 128v-7.636h1.134v1.153h.079c.139-.378.391-.684.756-.92a2.224 2.224 0 0 1 1.233-.353c.086 0 .194.002.323.005.129.004.227.009.293.015v1.193a3.702 3.702 0 0 0-.273-.044 2.608 2.608 0 0 0-.443-.035c-.371 0-.702.078-.994.234a1.712 1.712 0 0 0-.935 1.556V128h-1.173zm7.928.159c-.735 0-1.37-.162-1.904-.487a3.28 3.28 0 0 1-1.228-1.372c-.285-.59-.427-1.276-.427-2.059 0-.782.142-1.471.427-2.068.289-.6.69-1.067 1.203-1.402.517-.338 1.121-.507 1.81-.507.398 0 .79.066 1.178.199.388.133.741.348 1.059.646.318.295.572.686.761 1.174.189.487.283 1.087.283 1.799v.498h-5.886v-1.015h4.693c0-.431-.086-.815-.258-1.153a1.943 1.943 0 0 0-.726-.8c-.312-.196-.68-.294-1.104-.294-.467 0-.872.116-1.213.348a2.298 2.298 0 0 0-.781.895 2.632 2.632 0 0 0-.273 1.183v.676c0 .577.099 1.066.298 1.467.202.398.483.701.84.91.358.205.774.308 1.248.308.309 0 .587-.043.836-.129.251-.09.469-.222.651-.398.182-.179.323-.401.422-.666l1.134.318c-.119.385-.32.723-.602 1.014a2.905 2.905 0 0 1-1.044.676c-.414.16-.88.239-1.397.239zm6.944.02c-.484 0-.923-.091-1.317-.273a2.263 2.263 0 0 1-.94-.801c-.232-.351-.348-.775-.348-1.273 0-.437.086-.792.259-1.064a1.82 1.82 0 0 1 .691-.646c.288-.156.606-.272.954-.348.352-.079.705-.142 1.059-.189.464-.059.84-.104 1.129-.134.291-.033.504-.088.636-.164.136-.076.204-.209.204-.398v-.04c0-.49-.134-.871-.403-1.143-.265-.272-.668-.408-1.208-.408-.56 0-.999.123-1.317.368-.319.245-.542.507-.672.786l-1.113-.398c.199-.464.464-.825.795-1.084.335-.262.7-.444 1.094-.547a4.546 4.546 0 0 1 1.173-.159c.246 0 .527.03.846.09.321.056.631.174.929.353.302.179.552.449.751.81.199.361.298.845.298 1.452V128h-1.173v-1.034h-.06a2.059 2.059 0 0 1-.397.532c-.186.189-.433.35-.741.482-.308.133-.685.199-1.129.199zm.179-1.054c.464 0 .855-.091 1.173-.273a1.863 1.863 0 0 0 .975-1.616v-1.074c-.05.06-.159.114-.328.164a5.534 5.534 0 0 1-.577.124c-.215.033-.426.063-.631.09a36.4 36.4 0 0 0-.492.059 4.56 4.56 0 0 0-.856.194 1.471 1.471 0 0 0-.636.393c-.159.172-.239.408-.239.706 0 .408.151.716.453.925.305.205.691.308 1.158.308zm8.096 1.034c-.636 0-1.198-.161-1.685-.482-.487-.325-.868-.782-1.144-1.372-.275-.594-.412-1.295-.412-2.103 0-.802.137-1.498.412-2.088.276-.59.658-1.046 1.149-1.368.49-.321 1.057-.482 1.7-.482.497 0 .89.083 1.178.249.292.162.514.348.667.557.155.205.276.374.363.507h.099v-3.759h1.173V128h-1.133v-1.173h-.139a7.881 7.881 0 0 1-.368.527 2.182 2.182 0 0 1-.681.561c-.295.163-.688.244-1.179.244zm.159-1.054c.471 0 .869-.123 1.194-.368.324-.248.571-.591.74-1.029.169-.441.254-.949.254-1.526 0-.57-.083-1.069-.249-1.497-.165-.431-.411-.765-.736-1.004-.324-.242-.725-.363-1.203-.363-.497 0-.911.128-1.243.383a2.287 2.287 0 0 0-.74 1.029 4.08 4.08 0 0 0-.244 1.452c0 .543.083 1.037.249 1.481.169.441.417.792.745 1.054.332.259.743.388 1.233.388zm6.159 3.759a2.58 2.58 0 0 1-.532-.05 1.382 1.382 0 0 1-.323-.09l.298-1.034c.285.073.537.1.756.08a.909.909 0 0 0 .581-.293c.173-.173.33-.453.473-.841l.218-.596-2.824-7.676h1.273l2.108 6.085h.08l2.108-6.085h1.272l-3.241 8.75a3.32 3.32 0 0 1-.542.979 2.028 2.028 0 0 1-.751.582c-.281.126-.6.189-.954.189zm11.648-7.458V128h-1.173v-10.182h1.173v3.739h.099c.179-.395.448-.708.806-.94.361-.235.842-.353 1.441-.353.521 0 .976.105 1.368.313.391.206.694.522.909.95.219.424.329.964.329 1.621V128h-1.174v-4.773c0-.606-.157-1.075-.472-1.407-.312-.334-.744-.502-1.298-.502a2.16 2.16 0 0 0-1.034.244c-.301.162-.54.399-.716.711-.172.311-.258.689-.258 1.133zm9.095 4.773c-.484 0-.923-.091-1.317-.273a2.263 2.263 0 0 1-.94-.801c-.232-.351-.348-.775-.348-1.273 0-.437.086-.792.259-1.064a1.82 1.82 0 0 1 .691-.646c.288-.156.606-.272.954-.348.351-.079.704-.142 1.059-.189.464-.059.84-.104 1.129-.134.291-.033.503-.088.636-.164.136-.076.204-.209.204-.398v-.04c0-.49-.134-.871-.403-1.143-.265-.272-.668-.408-1.208-.408-.56 0-.999.123-1.317.368-.319.245-.542.507-.672.786l-1.113-.398c.199-.464.464-.825.795-1.084.335-.262.7-.444 1.094-.547a4.546 4.546 0 0 1 1.173-.159c.246 0 .527.03.845.09.322.056.632.174.93.353.302.179.552.449.751.81.199.361.298.845.298 1.452V128h-1.173v-1.034h-.06a2.042 2.042 0 0 1-.398.532c-.185.189-.432.35-.74.482-.309.133-.685.199-1.129.199zm.179-1.054c.464 0 .855-.091 1.173-.273a1.863 1.863 0 0 0 .975-1.616v-1.074c-.05.06-.159.114-.328.164a5.534 5.534 0 0 1-.577.124c-.215.033-.426.063-.631.09-.203.023-.367.043-.493.059a4.55 4.55 0 0 0-.855.194 1.471 1.471 0 0 0-.636.393c-.159.172-.239.408-.239.706 0 .408.151.716.453.925.305.205.691.308 1.158.308zm11.184-6.761L206.104 128h-1.193l-2.824-7.636h1.272l2.108 6.085h.08l2.108-6.085h1.273zm4.226 7.795c-.735 0-1.37-.162-1.904-.487a3.28 3.28 0 0 1-1.228-1.372c-.285-.59-.427-1.276-.427-2.059 0-.782.142-1.471.427-2.068.289-.6.69-1.067 1.203-1.402.518-.338 1.121-.507 1.81-.507.398 0 .791.066 1.178.199.388.133.741.348 1.059.646.319.295.572.686.761 1.174.189.487.283 1.087.283 1.799v.498h-5.886v-1.015h4.693c0-.431-.086-.815-.258-1.153a1.943 1.943 0 0 0-.726-.8c-.312-.196-.68-.294-1.104-.294-.467 0-.872.116-1.213.348a2.288 2.288 0 0 0-.78.895 2.62 2.62 0 0 0-.274 1.183v.676c0 .577.1 1.066.298 1.467.203.398.483.701.841.91.358.205.774.308 1.247.308.309 0 .587-.043.836-.129.252-.09.469-.222.651-.398a1.82 1.82 0 0 0 .423-.666l1.133.318c-.119.385-.32.723-.601 1.014-.282.289-.63.514-1.045.676-.414.16-.879.239-1.397.239zm10.632.02c-.484 0-.923-.091-1.318-.273a2.266 2.266 0 0 1-.939-.801c-.232-.351-.348-.775-.348-1.273 0-.437.086-.792.258-1.064.173-.275.403-.49.691-.646.289-.156.607-.272.955-.348.351-.079.704-.142 1.059-.189.464-.059.84-.104 1.128-.134.292-.033.504-.088.637-.164.136-.076.204-.209.204-.398v-.04c0-.49-.135-.871-.403-1.143-.265-.272-.668-.408-1.208-.408-.56 0-1 .123-1.318.368-.318.245-.542.507-.671.786l-1.113-.398c.198-.464.464-.825.795-1.084a2.981 2.981 0 0 1 1.094-.547 4.54 4.54 0 0 1 1.173-.159c.245 0 .527.03.845.09.322.056.632.174.93.353.301.179.552.449.751.81.198.361.298.845.298 1.452V128h-1.173v-1.034h-.06c-.08.166-.212.343-.398.532a2.27 2.27 0 0 1-.741.482c-.308.133-.684.199-1.128.199zm.179-1.054c.464 0 .855-.091 1.173-.273a1.863 1.863 0 0 0 .975-1.616v-1.074c-.05.06-.16.114-.329.164a5.51 5.51 0 0 1-.576.124c-.216.033-.426.063-.632.09-.202.023-.366.043-.492.059-.305.04-.59.105-.855.194a1.465 1.465 0 0 0-.636.393c-.159.172-.239.408-.239.706 0 .408.151.716.452.925.305.205.692.308 1.159.308zm6.386-3.719V128h-1.174v-7.636h1.134v1.193h.099c.179-.388.451-.7.816-.935.364-.238.835-.358 1.412-.358.517 0 .969.106 1.357.318.388.209.689.527.905.955.215.424.323.961.323 1.611V128h-1.173v-4.773c0-.6-.156-1.067-.468-1.402-.311-.338-.739-.507-1.282-.507-.375 0-.71.081-1.005.244a1.742 1.742 0 0 0-.691.711c-.169.311-.253.689-.253 1.133zm12.7 4.773c-.483 0-.923-.091-1.317-.273a2.269 2.269 0 0 1-.94-.801c-.232-.351-.348-.775-.348-1.273 0-.437.087-.792.259-1.064.172-.275.403-.49.691-.646.288-.156.606-.272.954-.348.352-.079.705-.142 1.059-.189.464-.059.841-.104 1.129-.134.292-.033.504-.088.636-.164.136-.076.204-.209.204-.398v-.04c0-.49-.134-.871-.403-1.143-.265-.272-.667-.408-1.208-.408-.56 0-.999.123-1.317.368-.318.245-.542.507-.671.786l-1.114-.398c.199-.464.464-.825.796-1.084a2.977 2.977 0 0 1 1.093-.547 4.547 4.547 0 0 1 1.174-.159c.245 0 .527.03.845.09.321.056.631.174.929.353.302.179.552.449.751.81.199.361.298.845.298 1.452V128h-1.173v-1.034h-.059c-.08.166-.213.343-.398.532-.186.189-.433.35-.741.482-.308.133-.684.199-1.129.199zm.179-1.054c.464 0 .856-.091 1.174-.273.321-.183.563-.418.726-.706.165-.289.248-.592.248-.91v-1.074c-.05.06-.159.114-.328.164a5.534 5.534 0 0 1-.577.124c-.215.033-.426.063-.631.09-.202.023-.366.043-.492.059-.305.04-.59.105-.855.194a1.475 1.475 0 0 0-.637.393c-.159.172-.238.408-.238.706 0 .408.15.716.452.925.305.205.691.308 1.158.308zm8.315 1.034c-.716 0-1.332-.169-1.849-.507a3.303 3.303 0 0 1-1.193-1.397c-.279-.593-.418-1.271-.418-2.033 0-.776.143-1.46.428-2.054a3.38 3.38 0 0 1 1.203-1.397c.517-.338 1.12-.507 1.809-.507.537 0 1.021.1 1.452.298.431.199.784.478 1.059.836a2.6 2.6 0 0 1 .512 1.253h-1.173a1.824 1.824 0 0 0-.597-.925c-.305-.272-.716-.408-1.233-.408a2.06 2.06 0 0 0-1.203.358c-.341.235-.608.569-.8.999-.189.428-.284.93-.284 1.507 0 .59.093 1.104.279 1.541.189.438.454.777.795 1.019.345.242.749.363 1.213.363.305 0 .582-.053.831-.159a1.71 1.71 0 0 0 .631-.457c.172-.199.295-.438.368-.716h1.173a2.72 2.72 0 0 1-.492 1.218 2.756 2.756 0 0 1-1.029.855c-.424.209-.918.313-1.482.313zm7.571 0c-.716 0-1.333-.169-1.85-.507a3.303 3.303 0 0 1-1.193-1.397c-.278-.593-.418-1.271-.418-2.033 0-.776.143-1.46.428-2.054a3.38 3.38 0 0 1 1.203-1.397c.517-.338 1.12-.507 1.81-.507.537 0 1.021.1 1.451.298.431.199.784.478 1.059.836a2.6 2.6 0 0 1 .512 1.253h-1.173c-.089-.348-.288-.657-.596-.925-.305-.272-.716-.408-1.233-.408a2.06 2.06 0 0 0-1.204.358c-.341.235-.608.569-.8.999-.189.428-.283.93-.283 1.507 0 .59.092 1.104.278 1.541.189.438.454.777.796 1.019.344.242.749.363 1.213.363.305 0 .581-.053.83-.159a1.71 1.71 0 0 0 .631-.457 1.75 1.75 0 0 0 .368-.716h1.173a2.72 2.72 0 0 1-.492 1.218 2.74 2.74 0 0 1-1.029.855c-.424.209-.918.313-1.481.313zm7.57 0c-.689 0-1.294-.164-1.815-.492a3.345 3.345 0 0 1-1.213-1.377c-.288-.59-.432-1.28-.432-2.068 0-.796.144-1.49.432-2.084a3.347 3.347 0 0 1 1.213-1.382c.521-.328 1.126-.492 1.815-.492.689 0 1.293.164 1.81.492.52.329.924.789 1.213 1.382.291.594.437 1.288.437 2.084 0 .788-.146 1.478-.437 2.068a3.303 3.303 0 0 1-1.213 1.377c-.517.328-1.121.492-1.81.492zm0-1.054c.524 0 .954-.134 1.293-.403.338-.268.588-.621.75-1.059.163-.437.244-.911.244-1.421 0-.511-.081-.986-.244-1.427a2.401 2.401 0 0 0-.75-1.069c-.339-.272-.769-.408-1.293-.408-.524 0-.955.136-1.293.408a2.401 2.401 0 0 0-.75 1.069 4.081 4.081 0 0 0-.244 1.427c0 .51.081.984.244 1.421.162.438.412.791.75 1.059.338.269.769.403 1.293.403zm9.814-2.227v-4.514h1.173V128H276.5v-1.293h-.08a2.505 2.505 0 0 1-.835.99c-.378.268-.855.402-1.432.402-.477 0-.901-.104-1.273-.313a2.192 2.192 0 0 1-.875-.954c-.212-.428-.318-.966-.318-1.616v-4.852h1.173v4.772c0 .557.156 1.001.468 1.333.315.331.716.497 1.203.497a2 2 0 0 0 .89-.224c.305-.149.56-.378.765-.686.209-.308.314-.701.314-1.178zm4.245-1.472V128h-1.173v-7.636h1.133v1.193h.1c.179-.388.451-.7.815-.935.365-.238.835-.358 1.412-.358.517 0 .97.106 1.357.318.388.209.69.527.905.955.216.424.323.961.323 1.611V128h-1.173v-4.773c0-.6-.156-1.067-.467-1.402-.312-.338-.739-.507-1.283-.507-.374 0-.709.081-1.004.244a1.736 1.736 0 0 0-.691.711c-.169.311-.254.689-.254 1.133zm10.087-3.042v.994h-3.957v-.994h3.957zm-2.804-1.83h1.174v7.278c0 .332.048.581.144.746a.739.739 0 0 0 .378.328c.155.053.32.08.492.08.129 0 .235-.007.318-.02l.199-.04.239 1.054c-.08.03-.191.06-.334.09a2.459 2.459 0 0 1-.541.049c-.332 0-.657-.071-.975-.213a1.931 1.931 0 0 1-.785-.652c-.206-.291-.309-.659-.309-1.103v-7.597zm5.851 6.602v-.059c.006-.633.072-1.137.198-1.512.126-.374.305-.677.537-.909.232-.232.511-.446.836-.642.195-.119.371-.26.527-.422a1.893 1.893 0 0 0 .507-1.288c0-.325-.077-.607-.229-.845a1.524 1.524 0 0 0-.612-.552 1.855 1.855 0 0 0-.85-.194 1.9 1.9 0 0 0-.785.169c-.252.113-.463.29-.632.532-.169.242-.266.559-.293.95h-1.253c.027-.564.173-1.046.438-1.447a2.628 2.628 0 0 1 1.059-.92 3.337 3.337 0 0 1 1.466-.318c.584 0 1.091.116 1.522.348.434.232.769.55 1.004.955.239.404.358.865.358 1.382 0 .364-.056.694-.169.989a2.46 2.46 0 0 1-.477.79 3.304 3.304 0 0 1-.746.617 3.039 3.039 0 0 0-.701.577 1.818 1.818 0 0 0-.383.711c-.08.275-.123.618-.129 1.029v.059h-1.193zm.636 2.944a.859.859 0 0 1-.631-.264.86.86 0 0 1-.264-.631c0-.246.088-.456.264-.632a.862.862 0 0 1 .631-.263c.245 0 .456.088.631.263a.861.861 0 0 1 .264.632.85.85 0 0 1-.124.447.934.934 0 0 1-.324.328.845.845 0 0 1-.447.12z"/><path fill="#002C15" d="M304.076 128v-10.909h1.976v9.252h4.805V128h-6.781zm11.73.16c-.799 0-1.492-.176-2.078-.528a3.574 3.574 0 0 1-1.363-1.475c-.32-.632-.48-1.371-.48-2.216 0-.845.16-1.586.48-2.221a3.572 3.572 0 0 1 1.363-1.481c.586-.352 1.279-.527 2.078-.527.799 0 1.491.175 2.077.527a3.535 3.535 0 0 1 1.358 1.481c.324.635.485 1.376.485 2.221 0 .845-.161 1.584-.485 2.216a3.537 3.537 0 0 1-1.358 1.475c-.586.352-1.278.528-2.077.528zm.01-1.545c.434 0 .796-.119 1.087-.357.291-.241.508-.564.65-.969.146-.405.218-.856.218-1.353 0-.501-.072-.954-.218-1.359a2.148 2.148 0 0 0-.65-.974c-.291-.242-.653-.363-1.087-.363-.443 0-.813.121-1.108.363-.291.241-.509.566-.655.974a4.088 4.088 0 0 0-.213 1.359c0 .497.071.948.213 1.353.146.405.364.728.655.969.295.238.665.357 1.108.357zm8.855 4.624c-.692 0-1.287-.094-1.784-.283-.498-.184-.897-.433-1.199-.745a2.58 2.58 0 0 1-.628-1.039l1.736-.421c.078.16.192.318.341.474.149.16.35.291.602.394.256.107.577.16.964.16.547 0 1-.133 1.358-.399.359-.263.538-.696.538-1.3v-1.55h-.096a2.725 2.725 0 0 1-.436.612c-.189.21-.439.386-.751.528-.309.142-.698.213-1.167.213a3.373 3.373 0 0 1-1.71-.442c-.508-.299-.912-.742-1.214-1.332-.299-.593-.448-1.335-.448-2.227 0-.898.149-1.656.448-2.274.302-.621.708-1.092 1.22-1.412a3.133 3.133 0 0 1 1.709-.484c.48 0 .874.081 1.183.245.312.159.561.353.746.58.184.224.325.435.42.634h.107v-1.353h1.902v8.315c0 .7-.167 1.279-.501 1.737-.334.458-.79.8-1.369 1.028-.579.227-1.236.341-1.971.341zm.016-4.869c.408 0 .756-.099 1.044-.298.288-.199.506-.485.655-.858.149-.373.224-.82.224-1.342 0-.515-.075-.966-.224-1.353-.145-.387-.362-.687-.65-.9-.284-.217-.633-.325-1.049-.325-.43 0-.788.112-1.076.335-.288.224-.504.531-.65.922a3.746 3.746 0 0 0-.218 1.321c0 .501.073.939.218 1.316.149.372.368.664.655.873.292.206.648.309 1.071.309zm9.022 1.63v-8.182h1.928V128h-1.928zm.969-9.343c-.305 0-.568-.101-.788-.304a.975.975 0 0 1-.331-.74c0-.291.11-.538.331-.74.22-.206.483-.309.788-.309a1.1 1.1 0 0 1 .788.309.965.965 0 0 1 .331.74c0 .288-.11.534-.331.74a1.109 1.109 0 0 1-.788.304zm4.62 4.549V128h-1.928v-8.182h1.843v1.39h.096c.188-.458.488-.822.9-1.092.415-.269.928-.404 1.539-.404.565 0 1.057.12 1.476.362.422.241.749.591.98 1.049.234.458.35 1.014.346 1.667V128h-1.928v-4.911c0-.547-.142-.975-.426-1.284-.281-.309-.67-.463-1.167-.463-.337 0-.637.074-.9.223a1.555 1.555 0 0 0-.613.634c-.145.277-.218.613-.218 1.007z"/><path fill="#002C15" d="M303 130.983h42.525v1.023H303v-1.023z"/><path fill="#454745" d="M56.358 171.818h1.412l2.824 4.753h.12l2.823-4.753h1.412l-3.68 5.986V182h-1.232v-4.196l-3.679-5.986zm11.799 10.341c-.69 0-1.295-.164-1.815-.492a3.342 3.342 0 0 1-1.213-1.377c-.288-.59-.433-1.28-.433-2.068 0-.796.145-1.49.433-2.084a3.344 3.344 0 0 1 1.213-1.382c.52-.328 1.125-.492 1.815-.492.689 0 1.292.164 1.81.492.52.329.924.789 1.212 1.382.292.594.438 1.288.438 2.084 0 .788-.146 1.478-.438 2.068a3.296 3.296 0 0 1-1.213 1.377c-.517.328-1.12.492-1.81.492zm0-1.054c.523 0 .954-.134 1.292-.403.338-.268.588-.621.75-1.059a4.05 4.05 0 0 0 .245-1.421c0-.511-.082-.986-.244-1.427a2.405 2.405 0 0 0-.75-1.069c-.339-.272-.77-.408-1.293-.408-.524 0-.955.136-1.293.408a2.405 2.405 0 0 0-.75 1.069 4.095 4.095 0 0 0-.244 1.427c0 .51.08.984.243 1.421.163.438.413.791.751 1.059.338.269.769.403 1.293.403zm9.813-2.227v-4.514h1.174V182H77.97v-1.293h-.08a2.508 2.508 0 0 1-.834.99c-.378.268-.855.402-1.432.402a2.55 2.55 0 0 1-1.273-.313 2.192 2.192 0 0 1-.875-.954c-.212-.428-.318-.966-.318-1.616v-4.852h1.173v4.772c0 .557.156 1.001.468 1.333.314.331.715.497 1.203.497a2 2 0 0 0 .89-.224 1.94 1.94 0 0 0 .765-.686c.209-.308.313-.701.313-1.178zm9.007 3.301c-.484 0-.923-.091-1.317-.273a2.265 2.265 0 0 1-.94-.801c-.232-.351-.348-.775-.348-1.273 0-.437.086-.792.259-1.064.172-.275.402-.49.69-.646a3.64 3.64 0 0 1 .955-.348c.352-.079.705-.142 1.06-.189.463-.059.84-.104 1.128-.134.291-.033.504-.088.636-.164.136-.076.204-.209.204-.398v-.04c0-.49-.134-.871-.403-1.143-.265-.272-.668-.408-1.208-.408-.56 0-1 .123-1.317.368-.319.245-.542.507-.672.786l-1.113-.398c.199-.464.464-.825.795-1.084.335-.262.7-.444 1.094-.547a4.543 4.543 0 0 1 1.173-.159c.246 0 .527.03.846.09.321.056.631.174.93.353.3.179.551.449.75.81.199.361.298.845.298 1.452V182h-1.173v-1.034h-.06c-.08.166-.212.343-.397.532-.186.189-.433.35-.741.482-.308.133-.685.199-1.129.199zm.18-1.054c.463 0 .854-.091 1.172-.273a1.863 1.863 0 0 0 .975-1.616v-1.074c-.05.06-.16.114-.328.164a5.529 5.529 0 0 1-.577.124c-.215.033-.426.063-.631.09a36.4 36.4 0 0 0-.492.059c-.305.04-.59.105-.855.194a1.47 1.47 0 0 0-.637.393c-.159.172-.239.408-.239.706 0 .408.151.716.453.925.305.205.69.308 1.158.308zm5.212.875v-7.636h1.133v1.153h.08a1.84 1.84 0 0 1 .756-.92 2.227 2.227 0 0 1 1.233-.353c.086 0 .193.002.323.005.129.004.227.009.293.015v1.193a3.665 3.665 0 0 0-.273-.044 2.605 2.605 0 0 0-.443-.035c-.371 0-.703.078-.994.234a1.713 1.713 0 0 0-.935 1.556V182H92.37zm7.928.159c-.736 0-1.37-.162-1.904-.487a3.272 3.272 0 0 1-1.228-1.372c-.285-.59-.428-1.276-.428-2.059 0-.782.143-1.471.428-2.068.288-.6.69-1.067 1.203-1.402.517-.338 1.12-.507 1.81-.507.397 0 .79.066 1.178.199.388.133.741.348 1.059.646.318.295.572.686.761 1.174.189.487.283 1.087.283 1.799v.498h-5.886v-1.015h4.693c0-.431-.086-.815-.259-1.153a1.943 1.943 0 0 0-.726-.8c-.311-.196-.679-.294-1.103-.294-.468 0-.872.116-1.213.348a2.29 2.29 0 0 0-.78.895 2.628 2.628 0 0 0-.274 1.183v.676c0 .577.1 1.066.298 1.467.202.398.482.701.84.91.358.205.774.308 1.248.308.308 0 .587-.043.835-.129.252-.09.469-.222.652-.398.182-.179.323-.401.422-.666l1.134.318a2.51 2.51 0 0 1-.602 1.014c-.282.289-.63.514-1.044.676-.414.16-.88.239-1.397.239zm8.384-.159v-7.636h1.134v1.153h.079a1.84 1.84 0 0 1 .756-.92 2.229 2.229 0 0 1 1.233-.353c.086 0 .194.002.323.005.129.004.227.009.293.015v1.193a3.514 3.514 0 0 0-.273-.044 2.605 2.605 0 0 0-.442-.035c-.372 0-.703.078-.995.234a1.711 1.711 0 0 0-.934 1.556V182h-1.174zm7.929.159c-.736 0-1.371-.162-1.905-.487a3.28 3.28 0 0 1-1.228-1.372c-.285-.59-.427-1.276-.427-2.059 0-.782.142-1.471.427-2.068.289-.6.69-1.067 1.204-1.402.517-.338 1.12-.507 1.809-.507.398 0 .791.066 1.179.199.387.133.74.348 1.058.646.319.295.572.686.761 1.174.189.487.283 1.087.283 1.799v.498h-5.886v-1.015h4.693c0-.431-.086-.815-.258-1.153a1.943 1.943 0 0 0-.726-.8c-.312-.196-.68-.294-1.104-.294-.467 0-.871.116-1.213.348a2.288 2.288 0 0 0-.78.895 2.62 2.62 0 0 0-.274 1.183v.676c0 .577.1 1.066.298 1.467.203.398.483.701.841.91.358.205.774.308 1.248.308.308 0 .586-.043.835-.129.252-.09.469-.222.651-.398a1.82 1.82 0 0 0 .423-.666l1.133.318c-.119.385-.32.723-.601 1.014-.282.289-.63.514-1.044.676-.415.16-.88.239-1.397.239zm7.779 2.864c-.567 0-1.054-.073-1.462-.219a3.096 3.096 0 0 1-1.019-.567 3.07 3.07 0 0 1-.641-.746l.934-.656c.106.139.24.299.403.477.162.183.384.34.666.473.285.136.658.204 1.119.204.616 0 1.125-.15 1.526-.448.401-.298.602-.765.602-1.402v-1.551h-.1a6.255 6.255 0 0 1-.368.517 2.09 2.09 0 0 1-.676.542c-.292.156-.686.234-1.183.234-.617 0-1.17-.146-1.661-.438-.487-.291-.873-.716-1.158-1.273-.282-.556-.423-1.233-.423-2.028 0-.782.138-1.463.413-2.043.275-.584.658-1.034 1.148-1.353.491-.321 1.058-.482 1.701-.482.497 0 .891.083 1.183.249.295.162.52.348.676.557.159.205.282.374.368.507h.119v-1.213h1.134v7.855c0 .656-.149 1.19-.448 1.601a2.544 2.544 0 0 1-1.193.909 4.489 4.489 0 0 1-1.66.294zm-.04-4.196c.471 0 .868-.108 1.193-.323.325-.216.572-.526.741-.93.169-.404.253-.888.253-1.452 0-.55-.082-1.036-.248-1.457a2.192 2.192 0 0 0-.736-.989c-.325-.239-.726-.358-1.203-.358-.497 0-.912.126-1.243.378-.328.252-.575.59-.741 1.014a3.93 3.93 0 0 0-.243 1.412c0 .53.082.999.248 1.407.169.404.418.723.746.955.331.228.742.343 1.233.343zm5.239 1.173v-7.636h1.173V182h-1.173zm.596-8.909a.83.83 0 0 1-.591-.234.75.75 0 0 1-.244-.562c0-.218.081-.406.244-.561a.83.83 0 0 1 .591-.234c.229 0 .424.078.587.234a.744.744 0 0 1 .248.561.746.746 0 0 1-.248.562.818.818 0 0 1-.587.234zm7.885 2.983-1.054.298a1.954 1.954 0 0 0-.293-.512 1.438 1.438 0 0 0-.517-.418c-.219-.109-.499-.164-.841-.164-.467 0-.856.108-1.168.324-.308.212-.462.482-.462.81 0 .292.106.522.318.691.212.169.543.31.994.423l1.134.278c.682.166 1.191.419 1.526.761.335.338.502.774.502 1.307 0 .438-.126.829-.378 1.173-.248.345-.596.617-1.044.816-.447.199-.968.298-1.561.298-.779 0-1.423-.169-1.934-.507-.51-.338-.833-.832-.969-1.482l1.113-.278c.106.411.307.719.602.925.298.205.688.308 1.168.308.547 0 .981-.116 1.303-.348.325-.235.487-.517.487-.845a.89.89 0 0 0-.278-.666c-.186-.183-.471-.319-.855-.408l-1.273-.298c-.7-.166-1.213-.423-1.541-.771-.325-.351-.488-.79-.488-1.317 0-.431.121-.812.363-1.144a2.48 2.48 0 0 1 1-.78 3.503 3.503 0 0 1 1.441-.284c.756 0 1.349.166 1.78.497.434.332.743.769.925 1.313zm4.976-1.71v.994h-3.957v-.994h3.957zm-2.804-1.83h1.174v7.278c0 .332.048.581.144.746a.739.739 0 0 0 .378.328c.155.053.319.08.492.08.129 0 .235-.007.318-.02l.199-.04.238 1.054c-.079.03-.19.06-.333.09a2.463 2.463 0 0 1-.542.049c-.331 0-.656-.071-.974-.213a1.931 1.931 0 0 1-.785-.652c-.206-.291-.309-.659-.309-1.103v-7.597zm7.439 9.625c-.736 0-1.371-.162-1.904-.487a3.266 3.266 0 0 1-1.228-1.372c-.285-.59-.428-1.276-.428-2.059 0-.782.143-1.471.428-2.068.288-.6.689-1.067 1.203-1.402.517-.338 1.12-.507 1.81-.507.397 0 .79.066 1.178.199.388.133.741.348 1.059.646.318.295.571.686.76 1.174.189.487.284 1.087.284 1.799v.498h-5.887v-1.015h4.694c0-.431-.087-.815-.259-1.153a1.943 1.943 0 0 0-.726-.8c-.311-.196-.679-.294-1.103-.294-.468 0-.872.116-1.214.348a2.288 2.288 0 0 0-.78.895 2.632 2.632 0 0 0-.273 1.183v.676c0 .577.099 1.066.298 1.467.202.398.482.701.84.91.358.205.774.308 1.248.308.308 0 .587-.043.835-.129.252-.09.469-.222.651-.398.183-.179.324-.401.423-.666l1.133.318a2.497 2.497 0 0 1-.601 1.014c-.282.289-.63.514-1.044.676-.414.16-.88.239-1.397.239zm4.697-.159v-7.636h1.133v1.153h.08c.139-.378.391-.684.755-.92a2.229 2.229 0 0 1 1.233-.353c.086 0 .194.002.323.005.13.004.227.009.294.015v1.193a3.667 3.667 0 0 0-.274-.044 2.597 2.597 0 0 0-.442-.035c-.371 0-.703.078-.994.234a1.761 1.761 0 0 0-.687.636 1.72 1.72 0 0 0-.248.92V182h-1.173zm4.959 0v-7.636h1.173V182h-1.173zm.596-8.909a.83.83 0 0 1-.591-.234.75.75 0 0 1-.244-.562c0-.218.081-.406.244-.561a.83.83 0 0 1 .591-.234c.229 0 .424.078.587.234a.74.74 0 0 1 .248.561.743.743 0 0 1-.248.562.818.818 0 0 1-.587.234zm3.649 4.315V182h-1.173v-7.636h1.133v1.193h.1c.179-.388.451-.7.815-.935.365-.238.835-.358 1.412-.358.517 0 .97.106 1.357.318.388.209.69.527.905.955.216.424.323.961.323 1.611V182h-1.173v-4.773c0-.6-.156-1.067-.467-1.402-.312-.338-.739-.507-1.283-.507-.375 0-.709.081-1.004.244a1.736 1.736 0 0 0-.691.711c-.169.311-.254.689-.254 1.133zm9.849 7.617c-.567 0-1.054-.073-1.462-.219a3.096 3.096 0 0 1-1.019-.567 3.07 3.07 0 0 1-.641-.746l.934-.656c.106.139.24.299.403.477.162.183.384.34.666.473.285.136.658.204 1.119.204.616 0 1.125-.15 1.526-.448.401-.298.602-.765.602-1.402v-1.551h-.1a6.255 6.255 0 0 1-.368.517 2.09 2.09 0 0 1-.676.542c-.292.156-.686.234-1.183.234-.617 0-1.17-.146-1.661-.438-.487-.291-.873-.716-1.158-1.273-.282-.556-.423-1.233-.423-2.028 0-.782.138-1.463.413-2.043.275-.584.658-1.034 1.148-1.353.491-.321 1.058-.482 1.701-.482.497 0 .891.083 1.183.249.295.162.52.348.676.557.159.205.282.374.368.507h.119v-1.213h1.134v7.855c0 .656-.149 1.19-.448 1.601a2.544 2.544 0 0 1-1.193.909 4.489 4.489 0 0 1-1.66.294zm-.04-4.196c.471 0 .868-.108 1.193-.323.325-.216.572-.526.741-.93.169-.404.253-.888.253-1.452 0-.55-.082-1.036-.248-1.457a2.192 2.192 0 0 0-.736-.989c-.325-.239-.726-.358-1.203-.358-.497 0-.912.126-1.243.378-.328.252-.575.59-.741 1.014a3.93 3.93 0 0 0-.243 1.412c0 .53.083.999.248 1.407.169.404.418.723.746.955.331.228.742.343 1.233.343zm11.173 1.352c-.484 0-.923-.091-1.317-.273a2.263 2.263 0 0 1-.94-.801c-.232-.351-.348-.775-.348-1.273 0-.437.086-.792.259-1.064a1.82 1.82 0 0 1 .691-.646c.288-.156.606-.272.954-.348.352-.079.705-.142 1.059-.189.464-.059.84-.104 1.129-.134.291-.033.504-.088.636-.164.136-.076.204-.209.204-.398v-.04c0-.49-.134-.871-.403-1.143-.265-.272-.668-.408-1.208-.408-.56 0-.999.123-1.317.368-.319.245-.542.507-.672.786l-1.113-.398c.199-.464.464-.825.795-1.084.335-.262.7-.444 1.094-.547a4.546 4.546 0 0 1 1.173-.159c.246 0 .527.03.846.09.321.056.631.174.929.353.302.179.552.449.751.81.199.361.298.845.298 1.452V182h-1.173v-1.034h-.06a2.059 2.059 0 0 1-.397.532c-.186.189-.433.35-.741.482-.308.133-.685.199-1.129.199zm.179-1.054c.464 0 .855-.091 1.173-.273a1.863 1.863 0 0 0 .975-1.616v-1.074c-.05.06-.159.114-.328.164a5.534 5.534 0 0 1-.577.124c-.215.033-.426.063-.631.09a36.4 36.4 0 0 0-.492.059 4.56 4.56 0 0 0-.856.194 1.471 1.471 0 0 0-.636.393c-.159.172-.239.408-.239.706 0 .408.151.716.453.925.305.205.691.308 1.158.308zm10.622-5.051-1.054.298a1.954 1.954 0 0 0-.293-.512 1.433 1.433 0 0 0-.518-.418c-.218-.109-.498-.164-.84-.164-.467 0-.857.108-1.168.324-.308.212-.462.482-.462.81 0 .292.106.522.318.691.212.169.543.31.994.423l1.134.278c.682.166 1.191.419 1.526.761.335.338.502.774.502 1.307 0 .438-.126.829-.378 1.173-.248.345-.596.617-1.044.816-.447.199-.968.298-1.561.298-.779 0-1.423-.169-1.934-.507-.51-.338-.833-.832-.969-1.482l1.113-.278c.106.411.307.719.602.925.298.205.688.308 1.168.308.547 0 .981-.116 1.303-.348.325-.235.487-.517.487-.845a.89.89 0 0 0-.278-.666c-.186-.183-.471-.319-.856-.408l-1.272-.298c-.7-.166-1.213-.423-1.541-.771-.325-.351-.488-.79-.488-1.317 0-.431.121-.812.363-1.144a2.474 2.474 0 0 1 1-.78 3.503 3.503 0 0 1 1.441-.284c.756 0 1.349.166 1.78.497.434.332.743.769.925 1.313zm2.51 6.006a.86.86 0 0 1-.631-.264.86.86 0 0 1-.264-.631c0-.246.088-.456.264-.632a.864.864 0 0 1 .631-.263c.246 0 .456.088.632.263a.864.864 0 0 1 .263.632.93.93 0 0 1-.447.775.851.851 0 0 1-.448.12zm0-5.668a.86.86 0 0 1-.631-.264.859.859 0 0 1-.264-.631c0-.245.088-.456.264-.631a.86.86 0 0 1 .631-.264c.246 0 .456.088.632.264a.862.862 0 0 1 .263.631.934.934 0 0 1-.447.776.86.86 0 0 1-.448.119z"/><rect width="177" height="43" x="56.5" y="193.5" fill="#fff" rx="7.5"/><rect width="19" height="19" x="70.5" y="205.5" fill="#C3F53C" rx="5.5"/><path stroke="#002C15" stroke-linecap="round" stroke-linejoin="round" stroke-width="2" d="m84.667 211.5-6.416 6.417L75.334 215"/><rect width="19" height="19" x="70.5" y="205.5" stroke="#C3F53C" rx="5.5"/><path fill="#002C15" d="M103.409 221v-11.636h3.932c.913 0 1.659.164 2.239.494.583.326 1.015.767 1.295 1.324s.42 1.178.42 1.863c0 .686-.14 1.309-.42 1.87a3.138 3.138 0 0 1-1.284 1.341c-.58.329-1.322.494-2.227.494h-2.819v-1.25h2.773c.625 0 1.127-.108 1.506-.324a1.93 1.93 0 0 0 .824-.875c.174-.371.261-.79.261-1.256a2.89 2.89 0 0 0-.261-1.25 1.866 1.866 0 0 0-.83-.863c-.382-.212-.89-.318-1.523-.318h-2.477V221h-1.409zm13.29.182c-.841 0-1.566-.186-2.176-.557a3.744 3.744 0 0 1-1.404-1.568c-.325-.674-.488-1.459-.488-2.352 0-.894.163-1.682.488-2.364.33-.686.788-1.22 1.375-1.602.591-.387 1.281-.58 2.068-.58.455 0 .904.076 1.347.227.443.152.847.398 1.21.739.364.337.654.784.87 1.341.216.557.323 1.242.323 2.057v.568h-6.727v-1.159h5.364c0-.493-.099-.932-.296-1.318a2.217 2.217 0 0 0-.829-.915c-.356-.224-.777-.335-1.262-.335-.534 0-.996.132-1.386.397a2.625 2.625 0 0 0-.892 1.023 3.01 3.01 0 0 0-.312 1.352v.773c0 .659.113 1.218.34 1.676.232.455.552.801.961 1.04.409.235.884.352 1.426.352.352 0 .67-.049.954-.147.288-.103.536-.254.745-.455.208-.205.369-.458.483-.761l1.295.363a2.86 2.86 0 0 1-.687 1.159 3.35 3.35 0 0 1-1.194.773 4.416 4.416 0 0 1-1.596.273zm5.403-.182v-8.727h1.296v1.318h.091c.159-.432.447-.782.863-1.051a2.544 2.544 0 0 1 1.409-.404c.099 0 .222.002.37.006.147.004.259.01.335.017v1.364a3.462 3.462 0 0 0-.313-.051 3.014 3.014 0 0 0-.505-.04c-.425 0-.803.089-1.137.267a2.019 2.019 0 0 0-.784.727 1.963 1.963 0 0 0-.284 1.051V221h-1.341zm11.885-6.773-1.204.341a2.229 2.229 0 0 0-.336-.585 1.617 1.617 0 0 0-.59-.477c-.25-.125-.571-.188-.961-.188-.534 0-.979.123-1.335.37-.352.242-.528.551-.528.926 0 .333.121.596.363.789.243.194.622.355 1.137.483l1.295.319c.78.189 1.362.479 1.744.869.383.386.574.884.574 1.494 0 .5-.144.947-.432 1.341-.284.394-.681.705-1.193.932-.511.227-1.106.341-1.784.341-.89 0-1.627-.193-2.21-.58-.583-.386-.953-.95-1.108-1.693l1.273-.318c.121.47.35.822.687 1.057.341.235.786.352 1.335.352.625 0 1.122-.133 1.489-.398.371-.269.557-.591.557-.966 0-.303-.106-.556-.318-.761-.212-.208-.538-.364-.978-.466l-1.454-.341c-.799-.189-1.386-.483-1.761-.88-.372-.402-.557-.904-.557-1.506 0-.493.138-.928.415-1.307a2.82 2.82 0 0 1 1.142-.892c.484-.216 1.034-.324 1.647-.324.864 0 1.542.189 2.034.568.497.379.849.879 1.057 1.5zm5.473 6.955c-.788 0-1.479-.188-2.074-.563-.591-.375-1.053-.899-1.386-1.574-.33-.674-.494-1.462-.494-2.363 0-.909.164-1.703.494-2.381.333-.678.795-1.204 1.386-1.579.595-.375 1.286-.563 2.074-.563.788 0 1.478.188 2.068.563.595.375 1.057.901 1.387 1.579.333.678.5 1.472.5 2.381 0 .901-.167 1.689-.5 2.363-.33.675-.792 1.199-1.387 1.574-.59.375-1.28.563-2.068.563zm0-1.205c.599 0 1.091-.153 1.478-.46a2.71 2.71 0 0 0 .857-1.21c.186-.5.279-1.042.279-1.625 0-.584-.093-1.127-.279-1.631a2.738 2.738 0 0 0-.857-1.221c-.387-.311-.879-.466-1.478-.466-.598 0-1.091.155-1.477.466-.386.31-.672.717-.858 1.221a4.671 4.671 0 0 0-.278 1.631c0 .583.092 1.125.278 1.625.186.5.472.903.858 1.21.386.307.879.46 1.477.46zm7.093-4.227V221h-1.341v-8.727h1.295v1.363h.114c.204-.443.515-.799.932-1.068.416-.273.954-.409 1.613-.409.591 0 1.108.121 1.551.364.444.238.788.602 1.034 1.091.247.484.37 1.098.37 1.841V221h-1.341v-5.455c0-.685-.178-1.219-.534-1.602-.356-.386-.845-.579-1.466-.579-.428 0-.811.092-1.148.278a1.998 1.998 0 0 0-.79.813c-.193.356-.289.787-.289 1.295zm10.336 5.455a3.546 3.546 0 0 1-1.505-.313 2.58 2.58 0 0 1-1.074-.915c-.265-.401-.398-.886-.398-1.454 0-.5.098-.906.295-1.216.197-.315.461-.561.79-.739.33-.178.693-.31 1.091-.398.402-.09.805-.162 1.21-.215.531-.069.961-.12 1.29-.154.333-.038.576-.1.727-.187.156-.087.233-.239.233-.455v-.045c0-.561-.153-.997-.46-1.307-.303-.311-.763-.466-1.381-.466-.64 0-1.142.14-1.505.42-.364.281-.62.58-.767.898l-1.273-.454c.227-.531.53-.944.909-1.239a3.406 3.406 0 0 1 1.25-.625 5.205 5.205 0 0 1 1.341-.182c.28 0 .602.034.966.102.367.065.721.199 1.062.404.345.204.631.513.858.926.228.413.341.966.341 1.659V221h-1.341v-1.182h-.068c-.091.19-.242.392-.454.608-.213.216-.495.4-.847.551-.352.152-.782.228-1.29.228zm.205-1.205c.53 0 .977-.104 1.341-.312a2.133 2.133 0 0 0 1.113-1.847v-1.227c-.057.068-.182.13-.375.187a6.143 6.143 0 0 1-.659.142 28.32 28.32 0 0 1-1.284.171 5.114 5.114 0 0 0-.977.221 1.684 1.684 0 0 0-.727.449c-.182.197-.273.466-.273.807 0 .466.172.818.517 1.057.348.235.79.352 1.324.352zm7.334-10.636V221h-1.341v-11.636h1.341z"/><rect width="177" height="43" x="56.5" y="193.5" stroke="#C3F53C" rx="7.5"/><rect width="177" height="43" x="246.5" y="193.5" fill="#fff" rx="7.5"/><rect width="19" height="19" x="260.5" y="205.5" fill="#fff" rx="5.5"/><rect width="19" height="19" x="260.5" y="205.5" stroke="#C9CBCE" rx="5.5"/><path fill="#6A6C6A" d="M293.409 221v-11.636h4.068c.811 0 1.479.14 2.006.42.526.277.919.65 1.176 1.119.258.466.386.983.386 1.552 0 .5-.089.912-.267 1.238a2.07 2.07 0 0 1-.693.773 3.168 3.168 0 0 1-.926.42V215c.356.023.714.148 1.074.375.36.227.661.553.903.977.243.425.364.943.364 1.557 0 .583-.133 1.108-.398 1.574-.265.466-.683.835-1.255 1.108-.572.273-1.317.409-2.233.409h-4.205zm1.409-1.25h2.796c.92 0 1.574-.178 1.96-.534.39-.36.585-.796.585-1.307 0-.394-.1-.757-.301-1.091a2.185 2.185 0 0 0-.858-.807c-.371-.204-.811-.306-1.318-.306h-2.864v4.045zm0-5.273h2.614c.424 0 .807-.083 1.148-.25.344-.166.617-.401.818-.704.204-.303.307-.659.307-1.068 0-.512-.178-.946-.535-1.302-.356-.359-.92-.539-1.693-.539h-2.659v3.863zm14.066 2.955v-5.159h1.34V221h-1.34v-1.477h-.091c-.205.443-.523.82-.955 1.13-.432.307-.977.461-1.636.461-.546 0-1.031-.12-1.455-.358-.424-.243-.757-.606-1-1.091-.242-.489-.363-1.104-.363-1.847v-5.545h1.34v5.454c0 .637.178 1.144.535 1.523.359.379.818.568 1.375.568.333 0 .672-.085 1.017-.256.348-.17.64-.431.875-.784.238-.352.358-.801.358-1.346zm9.728-3.205-1.204.341a2.229 2.229 0 0 0-.336-.585 1.617 1.617 0 0 0-.59-.477c-.25-.125-.571-.188-.961-.188-.534 0-.979.123-1.335.37-.352.242-.528.551-.528.926 0 .333.121.596.363.789.243.194.622.355 1.137.483l1.295.319c.78.189 1.362.479 1.744.869.383.386.574.884.574 1.494 0 .5-.144.947-.432 1.341-.284.394-.681.705-1.193.932-.511.227-1.106.341-1.784.341-.89 0-1.627-.193-2.21-.58-.583-.386-.953-.95-1.108-1.693l1.273-.318c.121.47.35.822.687 1.057.341.235.786.352 1.335.352.625 0 1.122-.133 1.489-.398.371-.269.557-.591.557-.966 0-.303-.106-.556-.318-.761-.212-.208-.538-.364-.978-.466l-1.454-.341c-.799-.189-1.386-.483-1.761-.88-.372-.402-.557-.904-.557-1.506 0-.493.138-.928.415-1.307a2.82 2.82 0 0 1 1.142-.892c.484-.216 1.034-.324 1.647-.324.864 0 1.542.189 2.034.568.497.379.849.879 1.057 1.5zM320.54 221v-8.727h1.341V221h-1.341zm.682-10.182a.955.955 0 0 1-.677-.267.86.86 0 0 1-.278-.642.86.86 0 0 1 .278-.642.955.955 0 0 1 .677-.267c.261 0 .484.089.67.267a.851.851 0 0 1 .284.642c0 .25-.095.464-.284.642a.934.934 0 0 1-.67.267zm4.206 4.932V221h-1.341v-8.727h1.295v1.363h.114c.204-.443.515-.799.932-1.068.416-.273.954-.409 1.613-.409.591 0 1.108.121 1.551.364.444.238.788.602 1.034 1.091.247.484.37 1.098.37 1.841V221h-1.341v-5.455c0-.685-.178-1.219-.534-1.602-.356-.386-.845-.579-1.466-.579-.428 0-.811.092-1.148.278a1.998 1.998 0 0 0-.79.813c-.193.356-.289.787-.289 1.295zm11.427 5.432c-.841 0-1.566-.186-2.176-.557a3.736 3.736 0 0 1-1.403-1.568c-.326-.674-.489-1.459-.489-2.352 0-.894.163-1.682.489-2.364.329-.686.787-1.22 1.375-1.602.59-.387 1.28-.58 2.068-.58.454 0 .903.076 1.346.227.444.152.847.398 1.211.739.363.337.653.784.869 1.341.216.557.324 1.242.324 2.057v.568h-6.728v-1.159h5.364c0-.493-.098-.932-.295-1.318a2.226 2.226 0 0 0-.83-.915c-.356-.224-.776-.335-1.261-.335-.534 0-.996.132-1.387.397a2.633 2.633 0 0 0-.892 1.023 3.01 3.01 0 0 0-.312 1.352v.773c0 .659.113 1.218.341 1.676.231.455.551.801.96 1.04.409.235.884.352 1.426.352.352 0 .671-.049.955-.147.288-.103.536-.254.744-.455.208-.205.369-.458.483-.761l1.295.363a2.86 2.86 0 0 1-.687 1.159c-.322.33-.72.587-1.193.773a4.425 4.425 0 0 1-1.597.273zm11.585-6.955-1.204.341a2.253 2.253 0 0 0-.335-.585 1.63 1.63 0 0 0-.591-.477c-.25-.125-.57-.188-.961-.188-.534 0-.979.123-1.335.37-.352.242-.528.551-.528.926 0 .333.121.596.363.789.243.194.622.355 1.137.483l1.295.319c.781.189 1.362.479 1.745.869.382.386.573.884.573 1.494 0 .5-.144.947-.431 1.341-.284.394-.682.705-1.194.932-.511.227-1.106.341-1.784.341-.89 0-1.627-.193-2.21-.58-.583-.386-.953-.95-1.108-1.693l1.273-.318c.121.47.35.822.687 1.057.341.235.786.352 1.336.352.625 0 1.121-.133 1.488-.398.371-.269.557-.591.557-.966 0-.303-.106-.556-.318-.761-.212-.208-.538-.364-.977-.466l-1.455-.341c-.799-.189-1.386-.483-1.761-.88-.372-.402-.557-.904-.557-1.506 0-.493.138-.928.415-1.307a2.82 2.82 0 0 1 1.142-.892c.485-.216 1.034-.324 1.647-.324.864 0 1.542.189 2.035.568.496.379.848.879 1.056 1.5zm8.11 0-1.205.341a2.224 2.224 0 0 0-.335-.585 1.63 1.63 0 0 0-.591-.477c-.25-.125-.57-.188-.96-.188-.534 0-.979.123-1.335.37-.353.242-.529.551-.529.926 0 .333.121.596.364.789.242.194.621.355 1.136.483l1.296.319c.78.189 1.361.479 1.744.869.383.386.574.884.574 1.494 0 .5-.144.947-.432 1.341-.284.394-.682.705-1.193.932-.512.227-1.106.341-1.784.341-.89 0-1.627-.193-2.211-.58-.583-.386-.952-.95-1.107-1.693l1.272-.318c.121.47.351.822.688 1.057.341.235.786.352 1.335.352.625 0 1.121-.133 1.489-.398.371-.269.556-.591.556-.966 0-.303-.106-.556-.318-.761-.212-.208-.538-.364-.977-.466l-1.455-.341c-.799-.189-1.386-.483-1.761-.88-.371-.402-.557-.904-.557-1.506 0-.493.139-.928.415-1.307a2.82 2.82 0 0 1 1.142-.892c.485-.216 1.034-.324 1.648-.324.863 0 1.541.189 2.034.568a3.07 3.07 0 0 1 1.057 1.5z"/><rect width="177" height="43" x="246.5" y="193.5" stroke="#C9CBCE" rx="7.5"/><path fill="#454745" d="M57.233 264v-10.182h6.105v1.094h-4.872v3.44h4.415v1.094h-4.415V264h-1.233zm12.142-3.122v-4.514h1.173V264h-1.173v-1.293h-.08a2.508 2.508 0 0 1-.835.99c-.378.268-.855.402-1.432.402a2.55 2.55 0 0 1-1.273-.313 2.191 2.191 0 0 1-.875-.954c-.212-.428-.318-.966-.318-1.616v-4.852h1.173v4.772c0 .557.156 1.001.468 1.333.315.331.716.497 1.203.497a2 2 0 0 0 .89-.224 1.94 1.94 0 0 0 .765-.686c.21-.308.314-.701.314-1.178zm4.245-7.06V264h-1.173v-10.182h1.173zm3.072 0V264H75.52v-10.182h1.173zm6.76 5.588V264H82.28v-7.636h1.133v1.193h.1c.179-.388.45-.7.815-.935.365-.238.835-.358 1.412-.358.517 0 .97.106 1.357.318.388.209.69.527.905.955.216.424.323.961.323 1.611V264h-1.173v-4.773c0-.6-.156-1.067-.467-1.402-.312-.338-.74-.507-1.283-.507-.374 0-.71.081-1.004.244a1.738 1.738 0 0 0-.691.711c-.17.311-.254.689-.254 1.133zm9.014 4.773c-.484 0-.923-.091-1.318-.273a2.265 2.265 0 0 1-.94-.801c-.232-.351-.348-.775-.348-1.273 0-.437.087-.792.259-1.064.172-.275.403-.49.691-.646.288-.156.606-.272.955-.348.35-.079.704-.142 1.058-.189.465-.059.84-.104 1.13-.134.29-.033.503-.088.635-.164.136-.076.204-.209.204-.398v-.04c0-.49-.134-.871-.402-1.143-.266-.272-.668-.408-1.209-.408-.56 0-.999.123-1.317.368-.318.245-.542.507-.671.786l-1.114-.398c.2-.464.464-.825.796-1.084a2.977 2.977 0 0 1 1.093-.547 4.543 4.543 0 0 1 1.174-.159c.245 0 .527.03.845.09.321.056.631.174.93.353.301.179.551.449.75.81.2.361.299.845.299 1.452V264h-1.174v-1.034h-.06a2.059 2.059 0 0 1-.397.532c-.186.189-.433.35-.74.482-.31.133-.685.199-1.13.199zm.178-1.054c.465 0 .856-.091 1.174-.273.321-.183.563-.418.726-.706.165-.289.248-.592.248-.91v-1.074c-.05.06-.159.114-.328.164a5.521 5.521 0 0 1-.577.124 29 29 0 0 1-.631.09c-.202.023-.366.043-.492.059-.305.04-.59.105-.855.194a1.47 1.47 0 0 0-.637.393c-.159.172-.238.408-.238.706 0 .408.15.716.452.925.305.205.691.308 1.158.308zm5.213.875v-7.636h1.134v1.193h.099c.16-.408.416-.724.77-.95.355-.228.781-.343 1.278-.343.504 0 .923.115 1.258.343.338.226.602.542.791.95h.079c.196-.395.489-.708.88-.94.391-.235.86-.353 1.407-.353.683 0 1.241.214 1.676.642.434.424.651 1.085.651 1.983V264h-1.174v-5.111c0-.563-.154-.966-.462-1.208a1.71 1.71 0 0 0-1.089-.363c-.537 0-.953.163-1.248.487-.294.322-.442.73-.442 1.223V264h-1.193v-5.23c0-.434-.141-.784-.423-1.049-.281-.269-.644-.403-1.089-.403-.304 0-.589.081-.855.244a1.838 1.838 0 0 0-.636.676c-.16.285-.239.615-.239.989V264h-1.173zm15.12.159c-.736 0-1.371-.162-1.904-.487a3.266 3.266 0 0 1-1.228-1.372c-.285-.59-.428-1.276-.428-2.059 0-.782.143-1.471.428-2.068.288-.6.689-1.067 1.203-1.402.517-.338 1.12-.507 1.809-.507.398 0 .791.066 1.179.199.387.133.74.348 1.059.646.318.295.571.686.76 1.174.189.487.284 1.087.284 1.799v.498h-5.887v-1.015h4.693c0-.431-.086-.815-.258-1.153a1.943 1.943 0 0 0-.726-.8c-.311-.196-.679-.294-1.104-.294-.467 0-.871.116-1.213.348a2.288 2.288 0 0 0-.78.895 2.632 2.632 0 0 0-.274 1.183v.676c0 .577.1 1.066.299 1.467.202.398.482.701.84.91.358.205.774.308 1.248.308.308 0 .586-.043.835-.129.252-.09.469-.222.651-.398.183-.179.323-.401.423-.666l1.133.318a2.497 2.497 0 0 1-.601 1.014c-.282.289-.63.514-1.044.676-.415.16-.88.239-1.397.239z"/><rect width="367" height="43" x="56.5" y="275.5" fill="#fff" rx="7.5"/><path fill="#6A6C6A" d="m73.523 303-3.182-11.636h1.432l2.431 9.477h.114l2.478-9.477h1.59l2.478 9.477h.113l2.432-9.477h1.432L81.659 303h-1.455l-2.568-9.273h-.09L74.977 303h-1.454zm13.983-5.25V303h-1.341v-11.636h1.34v4.272h.114c.205-.45.512-.808.92-1.074.414-.268.963-.403 1.648-.403.595 0 1.116.119 1.563.358a2.41 2.41 0 0 1 1.04 1.085c.25.485.375 1.103.375 1.853V303h-1.341v-5.455c0-.693-.18-1.229-.54-1.607-.356-.383-.85-.574-1.483-.574-.44 0-.833.092-1.182.278a2.033 2.033 0 0 0-.818.813c-.197.356-.295.787-.295 1.295zm10.43 5.455a3.552 3.552 0 0 1-1.506-.313 2.582 2.582 0 0 1-1.074-.915c-.265-.401-.397-.886-.397-1.454 0-.5.098-.906.295-1.216.197-.315.46-.561.79-.739.33-.178.693-.31 1.09-.398.403-.09.806-.162 1.211-.215.53-.069.96-.12 1.29-.154.333-.038.576-.1.727-.187.156-.087.233-.239.233-.455v-.045c0-.561-.153-.997-.46-1.307-.303-.311-.763-.466-1.38-.466-.64 0-1.143.14-1.506.42-.364.281-.62.58-.767.898l-1.273-.454c.227-.531.53-.944.909-1.239.383-.299.8-.508 1.25-.625a5.199 5.199 0 0 1 1.34-.182c.281 0 .603.034.967.102.367.065.721.199 1.062.404.345.204.631.513.858.926.227.413.341.966.341 1.659V303h-1.341v-1.182h-.068c-.091.19-.242.392-.455.608-.212.216-.494.4-.846.551-.352.152-.782.228-1.29.228zm.205-1.205c.53 0 .977-.104 1.34-.312.368-.209.644-.478.83-.807.189-.33.284-.676.284-1.04v-1.227c-.057.068-.182.13-.375.187a6.14 6.14 0 0 1-.659.142c-.246.038-.487.072-.722.102-.23.027-.418.05-.562.069a5.108 5.108 0 0 0-.977.221c-.3.099-.542.248-.728.449-.181.197-.272.466-.272.807 0 .466.172.818.517 1.057.348.235.79.352 1.324.352zm9.788-7.727v1.136h-4.523v-1.136h4.523zm-3.205-2.091h1.341v8.318c0 .379.055.663.165.852a.853.853 0 0 0 .432.375c.178.061.365.091.562.091.148 0 .269-.007.364-.023l.227-.045.273 1.205a2.74 2.74 0 0 1-.381.102 2.785 2.785 0 0 1-.619.057 2.7 2.7 0 0 1-1.114-.245 2.214 2.214 0 0 1-.897-.744c-.235-.333-.353-.754-.353-1.261v-8.682zm6.607-.818v1.022c0 .311-.057.642-.17.995-.11.348-.273.687-.489 1.017-.212.325-.47.61-.773.852l-.727-.591c.239-.341.445-.695.619-1.062.178-.372.267-.767.267-1.188v-1.045h1.273zm6.469 4.863-1.205.341a2.224 2.224 0 0 0-.335-.585 1.63 1.63 0 0 0-.591-.477c-.25-.125-.57-.188-.96-.188-.534 0-.979.123-1.335.37-.353.242-.529.551-.529.926 0 .333.121.596.364.789.242.194.621.355 1.136.483l1.296.319c.78.189 1.361.479 1.744.869.383.386.574.884.574 1.494 0 .5-.144.947-.432 1.341-.284.394-.682.705-1.193.932-.512.227-1.106.341-1.784.341-.89 0-1.627-.193-2.211-.58-.583-.386-.952-.95-1.107-1.693l1.272-.318c.121.47.351.822.688 1.057.341.235.786.352 1.335.352.625 0 1.121-.133 1.489-.398.371-.269.556-.591.556-.966 0-.303-.106-.556-.318-.761-.212-.208-.538-.364-.977-.466l-1.455-.341c-.799-.189-1.386-.483-1.761-.88-.371-.402-.557-.904-.557-1.506 0-.493.139-.928.415-1.307a2.82 2.82 0 0 1 1.142-.892c.485-.216 1.034-.324 1.648-.324.863 0 1.541.189 2.034.568a3.07 3.07 0 0 1 1.057 1.5zm7.041 10.046a2.93 2.93 0 0 1-.608-.057 1.601 1.601 0 0 1-.369-.102l.341-1.182c.325.083.613.113.863.091a1.04 1.04 0 0 0 .665-.335c.197-.197.377-.518.54-.961l.25-.682-3.228-8.772h1.455l2.409 6.954h.091l2.409-6.954h1.455l-3.705 10c-.167.45-.373.824-.619 1.119a2.321 2.321 0 0 1-.858.665 2.646 2.646 0 0 1-1.091.216zm11.025-3.091c-.787 0-1.479-.188-2.073-.563-.591-.375-1.053-.899-1.387-1.574-.329-.674-.494-1.462-.494-2.363 0-.909.165-1.703.494-2.381.334-.678.796-1.204 1.387-1.579.594-.375 1.286-.563 2.073-.563.788 0 1.478.188 2.069.563.594.375 1.056.901 1.386 1.579.333.678.5 1.472.5 2.381 0 .901-.167 1.689-.5 2.363a3.772 3.772 0 0 1-1.386 1.574c-.591.375-1.281.563-2.069.563zm0-1.205c.599 0 1.091-.153 1.478-.46a2.72 2.72 0 0 0 .858-1.21c.185-.5.278-1.042.278-1.625 0-.584-.093-1.127-.278-1.631a2.748 2.748 0 0 0-.858-1.221c-.387-.311-.879-.466-1.478-.466-.598 0-1.09.155-1.477.466-.386.31-.672.717-.858 1.221a4.695 4.695 0 0 0-.278 1.631c0 .583.093 1.125.278 1.625.186.5.472.903.858 1.21.387.307.879.46 1.477.46zm11.252-2.545v-5.159h1.341V303h-1.341v-1.477h-.091c-.205.443-.523.82-.955 1.13-.431.307-.977.461-1.636.461a2.92 2.92 0 0 1-1.454-.358c-.425-.243-.758-.606-1-1.091-.243-.489-.364-1.104-.364-1.847v-5.545h1.341v5.454c0 .637.178 1.144.534 1.523.36.379.818.568 1.375.568.333 0 .672-.085 1.017-.256.348-.17.64-.431.875-.784.239-.352.358-.801.358-1.346zm3.547 3.568v-8.727h1.295v1.318h.091c.159-.432.447-.782.864-1.051a2.54 2.54 0 0 1 1.409-.404c.098 0 .221.002.369.006s.26.01.335.017v1.364a3.351 3.351 0 0 0-.312-.051 3.026 3.026 0 0 0-.506-.04c-.424 0-.803.089-1.136.267a1.954 1.954 0 0 0-1.068 1.778V303h-1.341zm13.839-8.727v1.136H159.8v-1.136h4.704zM161.209 303v-9.932c0-.5.117-.916.352-1.25a2.19 2.19 0 0 1 .915-.75c.375-.166.771-.25 1.187-.25.33 0 .599.027.807.08.209.053.364.102.466.147l-.386 1.16a5.962 5.962 0 0 0-.284-.086 1.731 1.731 0 0 0-.466-.051c-.443 0-.764.112-.961.335-.193.224-.289.552-.289.983V303h-1.341zm10.425-3.568v-5.159h1.34V303h-1.34v-1.477h-.091c-.205.443-.523.82-.955 1.13-.432.307-.977.461-1.636.461-.546 0-1.031-.12-1.455-.358-.424-.243-.757-.606-1-1.091-.242-.489-.363-1.104-.363-1.847v-5.545h1.34v5.454c0 .637.178 1.144.535 1.523.359.379.818.568 1.375.568.333 0 .672-.085 1.017-.256.348-.17.64-.431.875-.784.238-.352.358-.801.358-1.346zm4.887-8.068V303h-1.341v-11.636h1.341zm3.547 0V303h-1.341v-11.636h1.341zm7.797 6.386V303h-1.341v-8.727h1.296v1.363h.113c.205-.443.515-.799.932-1.068.417-.273.955-.409 1.614-.409.591 0 1.108.121 1.551.364.443.238.788.602 1.034 1.091.246.484.369 1.098.369 1.841V303h-1.341v-5.455c0-.685-.178-1.219-.534-1.602-.356-.386-.844-.579-1.466-.579-.428 0-.81.092-1.147.278a1.985 1.985 0 0 0-.79.813c-.193.356-.29.787-.29 1.295zm10.337 5.455a3.554 3.554 0 0 1-1.506-.313 2.58 2.58 0 0 1-1.074-.915c-.265-.401-.398-.886-.398-1.454 0-.5.099-.906.296-1.216.197-.315.46-.561.79-.739.329-.178.693-.31 1.091-.398.401-.09.804-.162 1.21-.215.53-.069.96-.12 1.29-.154.333-.038.575-.1.727-.187.155-.087.233-.239.233-.455v-.045c0-.561-.154-.997-.46-1.307-.303-.311-.764-.466-1.381-.466-.64 0-1.142.14-1.506.42-.363.281-.619.58-.767.898l-1.273-.454c.228-.531.531-.944.91-1.239a3.398 3.398 0 0 1 1.25-.625 5.192 5.192 0 0 1 1.34-.182c.281 0 .603.034.966.102.368.065.722.199 1.063.404.345.204.631.513.858.926.227.413.341.966.341 1.659V303h-1.341v-1.182h-.068a2.36 2.36 0 0 1-.455.608c-.212.216-.494.4-.847.551-.352.152-.782.228-1.289.228zm.204-1.205c.531 0 .978-.104 1.341-.312.368-.209.644-.478.83-.807.189-.33.284-.676.284-1.04v-1.227c-.057.068-.182.13-.375.187-.19.053-.409.101-.659.142-.247.038-.487.072-.722.102-.231.027-.418.05-.562.069a5.107 5.107 0 0 0-.978.221 1.69 1.69 0 0 0-.727.449c-.182.197-.273.466-.273.807 0 .466.173.818.517 1.057.349.235.79.352 1.324.352zm5.993 1v-8.727h1.296v1.363h.113c.182-.466.476-.827.881-1.085.405-.261.892-.392 1.46-.392.576 0 1.055.131 1.438.392.386.258.687.619.903 1.085h.091a2.55 2.55 0 0 1 1.006-1.074c.447-.268.983-.403 1.608-.403.78 0 1.418.244 1.914.733.497.485.745 1.241.745 2.267V303h-1.341v-5.841c0-.644-.176-1.104-.529-1.381a1.957 1.957 0 0 0-1.244-.414c-.614 0-1.089.185-1.426.556-.337.368-.506.834-.506 1.398V303h-1.363v-5.977c0-.496-.161-.896-.483-1.199-.322-.307-.737-.46-1.245-.46-.348 0-.674.092-.977.278a2.1 2.1 0 0 0-.727.773 2.277 2.277 0 0 0-.273 1.13V303h-1.341zm17.315.182c-.84 0-1.566-.186-2.176-.557a3.736 3.736 0 0 1-1.403-1.568c-.326-.674-.489-1.459-.489-2.352 0-.894.163-1.682.489-2.364.329-.686.788-1.22 1.375-1.602.591-.387 1.28-.58 2.068-.58.455 0 .904.076 1.347.227.443.152.846.398 1.21.739.364.337.653.784.869 1.341.216.557.324 1.242.324 2.057v.568h-6.727v-1.159h5.363c0-.493-.098-.932-.295-1.318a2.219 2.219 0 0 0-.83-.915c-.356-.224-.776-.335-1.261-.335-.534 0-.996.132-1.386.397a2.617 2.617 0 0 0-.892 1.023 2.997 2.997 0 0 0-.313 1.352v.773c0 .659.114 1.218.341 1.676.231.455.551.801.96 1.04.409.235.885.352 1.426.352.353 0 .671-.049.955-.147.288-.103.536-.254.744-.455.209-.205.37-.458.483-.761l1.296.363c-.137.44-.366.826-.688 1.159-.322.33-.719.587-1.193.773a4.421 4.421 0 0 1-1.597.273z"/><rect width="367" height="43" x="56.5" y="275.5" stroke="#C9CBCE" rx="7.5"/><path fill="#454745" d="M57.233 346v-10.182h6.145v1.094h-4.912v3.44h4.594v1.094h-4.594v3.46h4.991V346h-6.224zm7.958 0v-7.636h1.134v1.193h.099c.16-.408.416-.724.77-.95.355-.228.781-.343 1.278-.343.504 0 .923.115 1.258.343.338.226.602.542.79.95h.08c.196-.395.489-.708.88-.94.391-.235.86-.353 1.407-.353.683 0 1.241.214 1.675.642.435.424.652 1.085.652 1.983V346H74.04v-5.111c0-.563-.154-.966-.462-1.208a1.71 1.71 0 0 0-1.089-.363c-.537 0-.953.163-1.248.487-.294.322-.442.73-.442 1.223V346h-1.193v-5.23c0-.434-.141-.784-.423-1.049-.282-.269-.644-.403-1.089-.403-.304 0-.59.081-.855.244a1.839 1.839 0 0 0-.636.676c-.16.285-.239.615-.239.989V346h-1.173zm14.165.179c-.484 0-.923-.091-1.317-.273a2.265 2.265 0 0 1-.94-.801c-.232-.351-.348-.775-.348-1.273 0-.437.086-.792.259-1.064.172-.275.402-.49.69-.646.289-.156.607-.272.955-.348.352-.079.704-.142 1.06-.189.463-.059.84-.104 1.128-.134.291-.033.504-.088.636-.164.136-.076.204-.209.204-.398v-.04c0-.49-.134-.871-.403-1.143-.265-.272-.668-.408-1.208-.408-.56 0-1 .123-1.317.368-.319.245-.542.507-.671.786l-1.114-.398c.199-.464.464-.825.795-1.084.335-.262.7-.444 1.094-.547a4.543 4.543 0 0 1 1.173-.159c.246 0 .527.03.846.09.321.056.63.174.93.353.3.179.551.449.75.81.199.361.298.845.298 1.452V346h-1.173v-1.034h-.06c-.08.166-.212.343-.398.532-.185.189-.432.35-.74.482-.308.133-.685.199-1.129.199zm.18-1.054c.463 0 .854-.091 1.172-.273a1.87 1.87 0 0 0 .726-.706 1.8 1.8 0 0 0 .249-.91v-1.074c-.05.06-.16.114-.328.164a5.532 5.532 0 0 1-.577.124c-.215.033-.426.063-.631.09-.203.023-.367.043-.493.059a4.55 4.55 0 0 0-.855.194 1.47 1.47 0 0 0-.636.393c-.16.172-.239.408-.239.706 0 .408.151.716.453.925.305.205.69.308 1.158.308zm5.212.875v-7.636h1.173V346h-1.173zm.596-8.909a.833.833 0 0 1-.591-.234.751.751 0 0 1-.244-.562c0-.218.081-.406.244-.561a.833.833 0 0 1 .591-.234c.229 0 .425.078.587.234a.742.742 0 0 1 .249.561.744.744 0 0 1-.25.562.816.816 0 0 1-.586.234zm3.65-1.273V346H87.82v-10.182h1.173zm7.833 10.361c-.484 0-.923-.091-1.318-.273a2.265 2.265 0 0 1-.94-.801c-.231-.351-.347-.775-.347-1.273 0-.437.086-.792.258-1.064.173-.275.403-.49.691-.646.289-.156.607-.272.955-.348.351-.079.704-.142 1.059-.189.464-.059.84-.104 1.128-.134.292-.033.504-.088.637-.164.136-.076.204-.209.204-.398v-.04c0-.49-.135-.871-.403-1.143-.265-.272-.668-.408-1.208-.408-.56 0-1 .123-1.318.368-.318.245-.542.507-.67.786l-1.115-.398c.2-.464.465-.825.796-1.084.335-.262.7-.444 1.094-.547a4.544 4.544 0 0 1 1.173-.159c.245 0 .527.03.845.09.322.056.632.174.93.353.301.179.552.449.751.81.198.361.298.845.298 1.452V346h-1.173v-1.034h-.06c-.08.166-.212.343-.398.532-.185.189-.432.35-.74.482-.309.133-.685.199-1.13.199zm.179-1.054c.464 0 .855-.091 1.173-.273a1.863 1.863 0 0 0 .975-1.616v-1.074c-.05.06-.16.114-.328.164a5.532 5.532 0 0 1-.577.124c-.216.033-.426.063-.632.09-.202.023-.366.043-.492.059-.305.04-.59.105-.855.194a1.47 1.47 0 0 0-.636.393c-.16.172-.239.408-.239.706 0 .408.15.716.453.925.304.205.69.308 1.158.308zm8.096 1.034c-.636 0-1.198-.161-1.685-.482-.488-.325-.869-.782-1.144-1.372-.275-.594-.413-1.295-.413-2.103 0-.802.138-1.498.413-2.088.275-.59.658-1.046 1.149-1.368.49-.321 1.057-.482 1.7-.482.497 0 .89.083 1.178.249.292.162.514.348.666.557.156.205.277.374.363.507h.1v-3.759h1.173V346h-1.134v-1.173h-.139a7.523 7.523 0 0 1-.368.527 2.182 2.182 0 0 1-.681.561c-.295.163-.688.244-1.178.244zm.159-1.054c.471 0 .868-.123 1.193-.368.325-.248.572-.591.741-1.029.169-.441.254-.949.254-1.526 0-.57-.083-1.069-.249-1.497-.166-.431-.411-.765-.736-1.004-.325-.242-.726-.363-1.203-.363-.497 0-.911.128-1.243.383a2.296 2.296 0 0 0-.741 1.029 4.102 4.102 0 0 0-.243 1.452c0 .543.083 1.037.248 1.481.169.441.418.792.746 1.054.331.259.742.388 1.233.388zm8.286 1.054c-.636 0-1.198-.161-1.685-.482-.487-.325-.869-.782-1.144-1.372-.275-.594-.412-1.295-.412-2.103 0-.802.137-1.498.412-2.088.275-.59.658-1.046 1.149-1.368.49-.321 1.057-.482 1.7-.482.497 0 .89.083 1.178.249.292.162.514.348.667.557.155.205.276.374.363.507h.099v-3.759h1.173V346h-1.133v-1.173h-.139a7.881 7.881 0 0 1-.368.527 2.187 2.187 0 0 1-.682.561c-.294.163-.687.244-1.178.244zm.159-1.054c.471 0 .869-.123 1.194-.368.324-.248.571-.591.74-1.029.169-.441.254-.949.254-1.526 0-.57-.083-1.069-.249-1.497-.165-.431-.411-.765-.736-1.004-.324-.242-.725-.363-1.203-.363-.497 0-.911.128-1.243.383a2.287 2.287 0 0 0-.74 1.029 4.08 4.08 0 0 0-.244 1.452c0 .543.083 1.037.249 1.481.169.441.417.792.745 1.054.332.259.743.388 1.233.388zm5.403.895v-7.636h1.134v1.153h.079c.139-.378.391-.684.756-.92a2.224 2.224 0 0 1 1.233-.353c.086 0 .194.002.323.005.129.004.227.009.293.015v1.193a3.702 3.702 0 0 0-.273-.044 2.608 2.608 0 0 0-.443-.035c-.371 0-.702.078-.994.234a1.712 1.712 0 0 0-.935 1.556V346h-1.173zm7.928.159c-.736 0-1.37-.162-1.904-.487a3.28 3.28 0 0 1-1.228-1.372c-.285-.59-.427-1.276-.427-2.059 0-.782.142-1.471.427-2.068.289-.6.69-1.067 1.203-1.402.517-.338 1.121-.507 1.81-.507.398 0 .79.066 1.178.199.388.133.741.348 1.059.646.318.295.572.686.761 1.174.189.487.283 1.087.283 1.799v.498h-5.886v-1.015h4.693c0-.431-.086-.815-.258-1.153a1.95 1.95 0 0 0-.726-.8c-.312-.196-.68-.294-1.104-.294-.467 0-.872.116-1.213.348a2.298 2.298 0 0 0-.781.895 2.632 2.632 0 0 0-.273 1.183v.676c0 .577.099 1.066.298 1.467.202.398.482.701.84.91.358.205.774.308 1.248.308.309 0 .587-.043.836-.129.251-.09.469-.222.651-.398.182-.179.323-.401.422-.666l1.134.318c-.119.385-.32.723-.602 1.014a2.905 2.905 0 0 1-1.044.676c-.414.16-.88.239-1.397.239zm10.106-6.085-1.054.298a1.954 1.954 0 0 0-.293-.512 1.43 1.43 0 0 0-.517-.418c-.219-.109-.499-.164-.84-.164-.468 0-.857.108-1.169.324-.308.212-.462.482-.462.81 0 .292.106.522.318.691.212.169.544.31.994.423l1.134.278c.683.166 1.191.419 1.526.761.335.338.502.774.502 1.307 0 .438-.126.829-.378 1.173-.248.345-.596.617-1.044.816-.447.199-.967.298-1.561.298-.779 0-1.423-.169-1.934-.507-.51-.338-.833-.832-.969-1.482l1.114-.278c.106.411.306.719.601.925.298.205.688.308 1.168.308.547 0 .982-.116 1.303-.348.325-.235.487-.517.487-.845a.89.89 0 0 0-.278-.666c-.186-.183-.471-.319-.855-.408l-1.273-.298c-.699-.166-1.213-.423-1.541-.771-.325-.351-.487-.79-.487-1.317 0-.431.121-.812.363-1.144a2.47 2.47 0 0 1 .999-.78 3.508 3.508 0 0 1 1.442-.284c.755 0 1.349.166 1.779.497.435.332.743.769.925 1.313zm7.065 0-1.054.298a1.959 1.959 0 0 0-.294-.512 1.43 1.43 0 0 0-.517-.418c-.219-.109-.499-.164-.84-.164-.467 0-.857.108-1.168.324-.309.212-.463.482-.463.81 0 .292.106.522.319.691.212.169.543.31.994.423l1.133.278c.683.166 1.192.419 1.527.761.334.338.502.774.502 1.307 0 .438-.126.829-.378 1.173-.249.345-.597.617-1.044.816-.448.199-.968.298-1.561.298-.779 0-1.424-.169-1.934-.507-.511-.338-.834-.832-.97-1.482l1.114-.278c.106.411.307.719.602.925.298.205.687.308 1.168.308.547 0 .981-.116 1.302-.348.325-.235.488-.517.488-.845a.887.887 0 0 0-.279-.666c-.185-.183-.47-.319-.855-.408l-1.273-.298c-.699-.166-1.213-.423-1.541-.771-.325-.351-.487-.79-.487-1.317 0-.431.121-.812.363-1.144a2.47 2.47 0 0 1 .999-.78 3.508 3.508 0 0 1 1.442-.284c.756 0 1.349.166 1.78.497.434.332.742.769.925 1.313z"/><rect width="367" height="43" x="56.5" y="357.5" fill="#fff" rx="7.5"/><path fill="#6A6C6A" d="M72.09 388.273c-.226 0-.429-.019-.607-.057a1.608 1.608 0 0 1-.37-.102l.341-1.182c.326.083.614.113.864.091a1.04 1.04 0 0 0 .665-.335c.197-.197.377-.518.54-.961l.25-.682-3.227-8.772H72l2.41 6.954h.09l2.41-6.954h1.454l-3.705 10c-.167.45-.373.824-.62 1.119a2.324 2.324 0 0 1-.857.665 2.645 2.645 0 0 1-1.091.216zm11.026-3.091c-.787 0-1.479-.188-2.073-.563-.591-.375-1.053-.899-1.387-1.574-.33-.674-.494-1.462-.494-2.363 0-.909.165-1.703.494-2.381.334-.678.796-1.204 1.387-1.579.594-.375 1.286-.563 2.073-.563.788 0 1.478.188 2.069.563.594.375 1.056.901 1.386 1.579.333.678.5 1.472.5 2.381 0 .901-.167 1.689-.5 2.363a3.764 3.764 0 0 1-1.386 1.574c-.591.375-1.28.563-2.069.563zm0-1.205c.599 0 1.091-.153 1.478-.46a2.72 2.72 0 0 0 .858-1.21c.185-.5.278-1.042.278-1.625a4.68 4.68 0 0 0-.278-1.631 2.742 2.742 0 0 0-.858-1.221c-.387-.311-.879-.466-1.477-.466-.599 0-1.091.155-1.478.466-.386.31-.672.717-.858 1.221a4.68 4.68 0 0 0-.278 1.631c0 .583.093 1.125.278 1.625.186.5.472.903.858 1.21.387.307.879.46 1.478.46zm11.252-2.545v-5.159h1.34V385h-1.34v-1.477h-.091c-.205.443-.523.82-.955 1.13-.431.307-.977.461-1.636.461-.545 0-1.03-.12-1.455-.358-.424-.243-.757-.606-1-1.091-.242-.489-.363-1.104-.363-1.847v-5.545h1.34v5.454c0 .637.179 1.144.535 1.523.36.379.818.568 1.375.568.333 0 .672-.085 1.017-.256.348-.17.64-.431.875-.784.239-.352.358-.801.358-1.346zm10.251 6.636c-1.159 0-2.183-.159-3.074-.477-.89-.314-1.638-.778-2.244-1.392-.606-.614-1.064-1.366-1.375-2.256-.31-.89-.466-1.909-.466-3.057 0-1.109.157-2.102.472-2.977.318-.875.778-1.617 1.38-2.227a5.987 5.987 0 0 1 2.205-1.404c.867-.322 1.849-.483 2.943-.483 1.065 0 1.996.175 2.796.523.803.345 1.473.813 2.011 1.404a5.874 5.874 0 0 1 1.216 1.983c.273.734.409 1.492.409 2.272 0 .55-.026 1.106-.08 1.671a6.316 6.316 0 0 1-.335 1.557c-.17.469-.433.848-.789 1.136-.353.288-.83.432-1.432.432-.265 0-.557-.042-.875-.125a2.305 2.305 0 0 1-.847-.415 1.151 1.151 0 0 1-.437-.778h-.069a2.016 2.016 0 0 1-1.153 1.096c-.299.118-.665.169-1.097.154a2.961 2.961 0 0 1-1.301-.33 2.833 2.833 0 0 1-.943-.83 3.899 3.899 0 0 1-.568-1.221 5.795 5.795 0 0 1-.188-1.506c0-.511.076-.979.228-1.403.151-.424.361-.796.63-1.114a3.27 3.27 0 0 1 2.142-1.119 3.169 3.169 0 0 1 1.034.051c.311.068.567.172.768.312.2.137.327.288.38.455h.068v-.636h1.205v5.136c0 .318.089.598.267.841.178.242.438.364.778.364.387 0 .682-.133.887-.398.208-.265.35-.674.426-1.227.079-.553.119-1.262.119-2.125 0-.508-.07-1.008-.21-1.5a4.948 4.948 0 0 0-.625-1.393 4.58 4.58 0 0 0-1.051-1.142 4.845 4.845 0 0 0-1.494-.772c-.569-.19-1.214-.284-1.938-.284-.89 0-1.687.138-2.392.414a4.807 4.807 0 0 0-1.79 1.199c-.488.523-.861 1.159-1.12 1.909-.253.747-.38 1.595-.38 2.546 0 .966.127 1.824.38 2.574.258.75.637 1.382 1.137 1.897.504.516 1.127.906 1.87 1.171.742.269 1.598.403 2.568.403.416 0 .827-.039 1.233-.119.405-.08.763-.167 1.074-.261.31-.095.534-.165.67-.211l.318 1.046a7.005 7.005 0 0 1-.92.295c-.375.099-.777.18-1.205.245a8.151 8.151 0 0 1-1.216.096zm-.659-4.523c.508 0 .919-.102 1.233-.306.315-.205.544-.514.688-.927.144-.412.216-.933.216-1.562 0-.636-.08-1.133-.239-1.489-.159-.356-.394-.606-.705-.75-.31-.144-.693-.216-1.147-.216-.432 0-.801.114-1.108.341a2.161 2.161 0 0 0-.699.898 3.057 3.057 0 0 0-.239 1.216c0 .485.065.941.193 1.369.129.425.339.769.631 1.034.292.262.684.392 1.176.392zm12.348 1.637c-.841 0-1.566-.186-2.176-.557a3.736 3.736 0 0 1-1.403-1.568c-.326-.674-.489-1.459-.489-2.352 0-.894.163-1.682.489-2.364.329-.686.788-1.22 1.375-1.602.591-.387 1.28-.58 2.068-.58.454 0 .903.076 1.346.227.444.152.847.398 1.211.739.363.337.653.784.869 1.341.216.557.324 1.242.324 2.057v.568h-6.727v-1.159h5.363c0-.493-.098-.932-.295-1.318a2.219 2.219 0 0 0-.83-.915c-.356-.224-.776-.335-1.261-.335-.534 0-.996.132-1.386.397a2.627 2.627 0 0 0-.893 1.023 3.01 3.01 0 0 0-.312 1.352v.773c0 .659.114 1.218.341 1.676.231.455.551.801.96 1.04.409.235.885.352 1.426.352.353 0 .671-.049.955-.147.288-.103.536-.254.744-.455.208-.205.369-.458.483-.761l1.296.363c-.137.44-.366.826-.688 1.159-.322.33-.72.587-1.193.773a4.425 4.425 0 0 1-1.597.273zm6.169-8.909 2.091 3.568 2.091-3.568h1.546l-2.819 4.363 2.819 4.364h-1.546l-2.091-3.386-2.091 3.386h-1.545l2.773-4.364-2.773-4.363h1.545zm9.959 8.932a3.554 3.554 0 0 1-1.506-.313 2.583 2.583 0 0 1-1.073-.915c-.266-.401-.398-.886-.398-1.454 0-.5.098-.906.295-1.216.197-.315.46-.561.79-.739.33-.178.693-.31 1.091-.398.401-.09.805-.162 1.21-.215.53-.069.96-.12 1.29-.154.333-.038.576-.1.727-.187.156-.087.233-.239.233-.455v-.045c0-.561-.153-.997-.46-1.307-.303-.311-.763-.466-1.381-.466-.64 0-1.142.14-1.505.42-.364.281-.62.58-.767.898l-1.273-.454c.227-.531.53-.944.909-1.239a3.398 3.398 0 0 1 1.25-.625 5.193 5.193 0 0 1 1.341-.182c.28 0 .602.034.966.102.367.065.721.199 1.062.404.345.204.631.513.858.926.227.413.341.966.341 1.659V385h-1.341v-1.182h-.068c-.091.19-.242.392-.455.608-.212.216-.494.4-.846.551-.352.152-.782.228-1.29.228zm.205-1.205c.53 0 .977-.104 1.341-.312a2.14 2.14 0 0 0 .829-.807c.189-.33.284-.676.284-1.04v-1.227c-.057.068-.182.13-.375.187a6.143 6.143 0 0 1-.659.142c-.246.038-.487.072-.722.102-.231.027-.418.05-.562.069a5.114 5.114 0 0 0-.977.221c-.3.099-.542.248-.728.449-.181.197-.272.466-.272.807 0 .466.172.818.517 1.057.348.235.79.352 1.324.352zm5.993 1v-8.727h1.295v1.363h.114a2.19 2.19 0 0 1 .88-1.085c.406-.261.892-.392 1.461-.392.575 0 1.054.131 1.437.392.386.258.688.619.903 1.085h.091c.224-.45.559-.808 1.006-1.074.447-.268.983-.403 1.608-.403.78 0 1.419.244 1.915.733.496.485.744 1.241.744 2.267V385h-1.341v-5.841c0-.644-.176-1.104-.528-1.381a1.96 1.96 0 0 0-1.245-.414c-.613 0-1.089.185-1.426.556-.337.368-.505.834-.505 1.398V385h-1.364v-5.977c0-.496-.161-.896-.483-1.199-.322-.307-.737-.46-1.244-.46-.349 0-.675.092-.978.278a2.107 2.107 0 0 0-.727.773 2.277 2.277 0 0 0-.273 1.13V385h-1.34zm13.656 3.273v-12h1.295v1.386h.159c.099-.151.235-.345.409-.579.178-.239.432-.451.762-.637.333-.189.784-.284 1.352-.284.735 0 1.383.184 1.943.551.561.368.998.888 1.313 1.563.314.674.471 1.469.471 2.386 0 .924-.157 1.725-.471 2.403-.315.675-.75 1.197-1.307 1.569-.557.367-1.199.551-1.926.551-.561 0-1.01-.093-1.347-.279-.337-.189-.596-.403-.778-.642a8.677 8.677 0 0 1-.421-.602h-.113v4.614h-1.341zm1.318-7.637c0 .659.097 1.241.29 1.745.193.5.475.892.846 1.176.372.28.826.42 1.364.42.561 0 1.028-.147 1.403-.443.379-.299.663-.701.853-1.204a4.734 4.734 0 0 0 .289-1.694c0-.613-.094-1.166-.284-1.659-.185-.496-.467-.888-.846-1.176-.375-.292-.847-.437-1.415-.437-.545 0-1.004.138-1.375.414-.371.273-.652.656-.841 1.148-.189.489-.284 1.059-.284 1.71zm9.523-7.272V385h-1.341v-11.636h1.341zm5.865 11.818c-.841 0-1.567-.186-2.176-.557a3.744 3.744 0 0 1-1.404-1.568c-.326-.674-.488-1.459-.488-2.352 0-.894.162-1.682.488-2.364.33-.686.788-1.22 1.375-1.602.591-.387 1.28-.58 2.068-.58.455 0 .904.076 1.347.227.443.152.847.398 1.21.739.364.337.654.784.87 1.341.215.557.323 1.242.323 2.057v.568h-6.727v-1.159h5.364c0-.493-.099-.932-.296-1.318a2.217 2.217 0 0 0-.829-.915c-.356-.224-.777-.335-1.262-.335-.534 0-.996.132-1.386.397a2.625 2.625 0 0 0-.892 1.023 3.01 3.01 0 0 0-.313 1.352v.773c0 .659.114 1.218.341 1.676.231.455.552.801.961 1.04.409.235.884.352 1.426.352.352 0 .67-.049.954-.147.288-.103.536-.254.745-.455.208-.205.369-.458.483-.761l1.295.363c-.136.44-.366.826-.687 1.159a3.35 3.35 0 0 1-1.194.773 4.416 4.416 0 0 1-1.596.273zm6.38-.091c-.28 0-.52-.1-.721-.301a.985.985 0 0 1-.301-.722c0-.28.1-.521.301-.721a.984.984 0 0 1 .721-.302c.281 0 .521.101.722.302.201.2.301.441.301.721a.964.964 0 0 1-.142.512c-.091.155-.214.28-.369.375a.985.985 0 0 1-.512.136zm6.725.091c-.818 0-1.523-.193-2.114-.58a3.77 3.77 0 0 1-1.363-1.596c-.319-.678-.478-1.453-.478-2.324 0-.887.163-1.669.489-2.347.329-.682.788-1.214 1.375-1.596.591-.387 1.28-.58 2.068-.58.614 0 1.167.114 1.659.341.493.227.896.545 1.21.955.315.409.51.886.586 1.431h-1.341c-.103-.397-.33-.75-.682-1.056-.349-.311-.818-.466-1.409-.466-.523 0-.981.136-1.375.409-.39.269-.695.649-.915 1.142-.216.488-.324 1.062-.324 1.721 0 .675.106 1.262.318 1.762.216.5.519.888.909 1.164.394.277.857.415 1.387.415.348 0 .665-.06.949-.182.284-.121.524-.295.721-.522.197-.228.337-.5.421-.818h1.341a3.114 3.114 0 0 1-.563 1.392 3.142 3.142 0 0 1-1.176.977c-.485.238-1.049.358-1.693.358zm8.687 0c-.788 0-1.479-.188-2.074-.563-.59-.375-1.053-.899-1.386-1.574-.329-.674-.494-1.462-.494-2.363 0-.909.165-1.703.494-2.381.333-.678.796-1.204 1.386-1.579.595-.375 1.286-.563 2.074-.563.788 0 1.478.188 2.069.563.594.375 1.056.901 1.386 1.579.333.678.5 1.472.5 2.381 0 .901-.167 1.689-.5 2.363a3.772 3.772 0 0 1-1.386 1.574c-.591.375-1.281.563-2.069.563zm0-1.205c.599 0 1.091-.153 1.478-.46a2.72 2.72 0 0 0 .858-1.21c.185-.5.278-1.042.278-1.625 0-.584-.093-1.127-.278-1.631a2.748 2.748 0 0 0-.858-1.221c-.387-.311-.879-.466-1.478-.466-.598 0-1.091.155-1.477.466-.386.31-.672.717-.858 1.221a4.695 4.695 0 0 0-.278 1.631c0 .583.093 1.125.278 1.625.186.5.472.903.858 1.21.386.307.879.46 1.477.46zM196.54 385v-8.727h1.295v1.363h.114c.182-.466.475-.827.881-1.085.405-.261.892-.392 1.46-.392.576 0 1.055.131 1.437.392.387.258.688.619.904 1.085h.091c.223-.45.558-.808 1.005-1.074.447-.268.983-.403 1.608-.403.781 0 1.419.244 1.915.733.496.485.744 1.241.744 2.267V385h-1.341v-5.841c0-.644-.176-1.104-.528-1.381a1.957 1.957 0 0 0-1.244-.414c-.614 0-1.089.185-1.426.556-.338.368-.506.834-.506 1.398V385h-1.364v-5.977c0-.496-.161-.896-.483-1.199-.322-.307-.736-.46-1.244-.46-.349 0-.674.092-.977.278-.3.186-.542.443-.728.773a2.288 2.288 0 0 0-.272 1.13V385h-1.341z"/><rect width="367" height="43" x="56.5" y="357.5" stroke="#C9CBCE" rx="7.5"/><path fill="#454745" d="M57.233 428v-10.182h3.44c.8 0 1.452.144 1.96.433.51.285.887.671 1.133 1.158.245.487.367 1.031.367 1.631a3.6 3.6 0 0 1-.367 1.635 2.735 2.735 0 0 1-1.124 1.174c-.507.288-1.157.432-1.949.432h-2.466v-1.093h2.426c.547 0 .986-.095 1.318-.284a1.69 1.69 0 0 0 .72-.766c.153-.324.23-.691.23-1.098 0-.408-.077-.772-.23-1.094a1.638 1.638 0 0 0-.725-.756c-.335-.185-.779-.278-1.333-.278h-2.167V428h-1.233zm10.725.179c-.484 0-.923-.091-1.318-.273a2.265 2.265 0 0 1-.94-.801c-.231-.351-.347-.775-.347-1.273 0-.437.086-.792.258-1.064.172-.275.403-.49.691-.646.289-.156.607-.272.955-.348.351-.079.704-.142 1.059-.189.464-.059.84-.104 1.128-.134.292-.033.504-.088.637-.164.135-.076.203-.209.203-.398v-.04c0-.49-.134-.871-.402-1.143-.265-.272-.668-.408-1.208-.408-.56 0-1 .123-1.318.368-.318.245-.542.507-.671.786l-1.114-.398c.2-.464.464-.825.796-1.084.335-.262.7-.444 1.094-.547a4.543 4.543 0 0 1 1.173-.159c.245 0 .527.03.845.09a2.7 2.7 0 0 1 .93.353c.301.179.552.449.75.81.2.361.299.845.299 1.452V428h-1.174v-1.034h-.06a2.036 2.036 0 0 1-.397.532c-.186.189-.433.35-.74.482-.309.133-.685.199-1.13.199zm.179-1.054c.464 0 .855-.091 1.173-.273a1.863 1.863 0 0 0 .974-1.616v-1.074c-.05.06-.159.114-.328.164a5.521 5.521 0 0 1-.576.124c-.216.033-.426.063-.632.09-.202.023-.366.043-.492.059-.305.04-.59.105-.855.194a1.47 1.47 0 0 0-.636.393c-.16.172-.24.408-.24.706 0 .408.152.716.453.925.305.205.691.308 1.159.308zm10.621-5.051-1.054.298a1.956 1.956 0 0 0-.293-.512 1.431 1.431 0 0 0-.517-.418c-.219-.109-.499-.164-.84-.164-.468 0-.857.108-1.169.324-.308.212-.462.482-.462.81 0 .292.106.522.318.691.212.169.544.31.995.423l1.133.278c.683.166 1.192.419 1.526.761.335.338.502.774.502 1.307 0 .438-.125.829-.377 1.173-.249.345-.597.617-1.044.816-.448.199-.968.298-1.561.298-.78 0-1.424-.169-1.934-.507-.51-.338-.834-.832-.97-1.482l1.114-.278c.106.411.306.719.601.925.299.205.688.308 1.169.308.547 0 .98-.116 1.302-.348.325-.235.487-.517.487-.845a.888.888 0 0 0-.278-.666c-.186-.183-.47-.319-.855-.408l-1.273-.298c-.7-.166-1.213-.423-1.541-.771-.325-.351-.487-.79-.487-1.317 0-.431.12-.812.363-1.144a2.474 2.474 0 0 1 .999-.78 3.508 3.508 0 0 1 1.442-.284c.755 0 1.349.166 1.78.497.434.332.742.769.924 1.313zm7.065 0-1.054.298a1.956 1.956 0 0 0-.294-.512 1.431 1.431 0 0 0-.516-.418c-.22-.109-.5-.164-.84-.164-.468 0-.858.108-1.17.324-.307.212-.461.482-.461.81 0 .292.106.522.318.691.212.169.543.31.994.423l1.134.278c.682.166 1.191.419 1.526.761.335.338.502.774.502 1.307 0 .438-.126.829-.378 1.173-.248.345-.596.617-1.044.816-.447.199-.968.298-1.561.298-.779 0-1.424-.169-1.934-.507-.51-.338-.834-.832-.97-1.482l1.114-.278c.106.411.307.719.602.925.298.205.688.308 1.168.308.547 0 .981-.116 1.303-.348.325-.235.487-.517.487-.845a.888.888 0 0 0-.278-.666c-.186-.183-.471-.319-.856-.408l-1.272-.298c-.7-.166-1.213-.423-1.541-.771-.325-.351-.488-.79-.488-1.317 0-.431.121-.812.363-1.144a2.474 2.474 0 0 1 1-.78 3.507 3.507 0 0 1 1.441-.284c.756 0 1.35.166 1.78.497.434.332.743.769.925 1.313zM89.208 428l-2.326-7.636h1.233l1.65 5.846h.08l1.63-5.846h1.253l1.611 5.826h.08l1.65-5.826h1.233L94.975 428h-1.153l-1.67-5.866h-.12L90.362 428h-1.154zm12.238.159c-.69 0-1.295-.164-1.815-.492a3.342 3.342 0 0 1-1.213-1.377c-.288-.59-.433-1.28-.433-2.068 0-.796.145-1.49.433-2.084a3.344 3.344 0 0 1 1.213-1.382c.52-.328 1.125-.492 1.815-.492.689 0 1.292.164 1.809.492.521.329.925.789 1.213 1.382.292.594.438 1.288.438 2.084 0 .788-.146 1.478-.438 2.068a3.29 3.29 0 0 1-1.213 1.377c-.517.328-1.12.492-1.809.492zm0-1.054c.523 0 .954-.134 1.292-.403.338-.268.589-.621.751-1.059.162-.437.244-.911.244-1.421 0-.511-.082-.986-.244-1.427a2.403 2.403 0 0 0-.751-1.069c-.338-.272-.769-.408-1.292-.408-.524 0-.955.136-1.293.408a2.406 2.406 0 0 0-.75 1.069 4.095 4.095 0 0 0-.244 1.427c0 .51.08.984.243 1.421.163.438.413.791.751 1.059.338.269.769.403 1.293.403zm5.001.895v-7.636h1.133v1.153h.08c.139-.378.391-.684.756-.92a2.224 2.224 0 0 1 1.233-.353c.086 0 .194.002.323.005.129.004.227.009.293.015v1.193a3.702 3.702 0 0 0-.273-.044 2.617 2.617 0 0 0-.443-.035c-.371 0-.702.078-.994.234a1.712 1.712 0 0 0-.935 1.556V428h-1.173zm7.61.159c-.636 0-1.198-.161-1.685-.482-.488-.325-.869-.782-1.144-1.372-.275-.594-.412-1.295-.412-2.103 0-.802.137-1.498.412-2.088.275-.59.658-1.046 1.149-1.368.49-.321 1.057-.482 1.7-.482.497 0 .89.083 1.178.249.292.162.514.348.666.557.156.205.277.374.363.507h.1v-3.759h1.173V428h-1.134v-1.173h-.139a7.523 7.523 0 0 1-.368.527 2.182 2.182 0 0 1-.681.561c-.295.163-.687.244-1.178.244zm.159-1.054c.471 0 .868-.123 1.193-.368.325-.248.572-.591.741-1.029.169-.441.254-.949.254-1.526 0-.57-.083-1.069-.249-1.497-.166-.431-.411-.765-.736-1.004-.325-.242-.726-.363-1.203-.363-.497 0-.911.128-1.243.383a2.296 2.296 0 0 0-.741 1.029 4.102 4.102 0 0 0-.243 1.452c0 .543.083 1.037.248 1.481.169.441.418.792.746 1.054.332.259.743.388 1.233.388z"/><rect width="367" height="43" x="56.5" y="439.5" fill="#fff" rx="7.5"/><path fill="#6A6C6A" d="M71.41 467v-11.636h7.022v1.25h-5.614v3.931h5.25v1.25h-5.25v3.955h5.705V467h-7.114zm10.47-5.25V467h-1.34v-8.727h1.295v1.363h.114c.204-.443.515-.799.932-1.068.416-.273.954-.409 1.613-.409.591 0 1.108.121 1.552.364.443.238.787.602 1.033 1.091.247.484.37 1.098.37 1.841V467h-1.341v-5.455c0-.685-.178-1.219-.534-1.602-.356-.386-.845-.579-1.466-.579-.428 0-.81.092-1.148.278a1.99 1.99 0 0 0-.79.813c-.193.356-.29.787-.29 1.295zm11.565-3.477v1.136h-4.523v-1.136h4.523zm-3.205-2.091h1.341v8.318c0 .379.055.663.165.852a.85.85 0 0 0 .432.375c.178.061.365.091.562.091.148 0 .269-.007.364-.023l.227-.045.273 1.205a2.74 2.74 0 0 1-.381.102c-.163.038-.37.057-.62.057-.378 0-.75-.082-1.113-.245a2.215 2.215 0 0 1-.898-.744c-.234-.333-.352-.754-.352-1.261v-8.682zm8.537 11c-.84 0-1.566-.186-2.176-.557a3.74 3.74 0 0 1-1.404-1.568c-.325-.674-.488-1.459-.488-2.352 0-.894.163-1.682.488-2.364.33-.686.788-1.22 1.375-1.602.591-.387 1.28-.58 2.069-.58.454 0 .903.076 1.346.227a3.34 3.34 0 0 1 1.21.739c.364.337.654.784.87 1.341.216.557.324 1.242.324 2.057v.568h-6.728v-1.159h5.364c0-.493-.098-.932-.295-1.318a2.226 2.226 0 0 0-.83-.915c-.356-.224-.776-.335-1.261-.335-.535 0-.997.132-1.387.397a2.624 2.624 0 0 0-.892 1.023 3.006 3.006 0 0 0-.312 1.352v.773c0 .659.113 1.218.34 1.676.232.455.552.801.96 1.04.41.235.885.352 1.427.352.352 0 .67-.049.954-.147a2.05 2.05 0 0 0 .745-.455c.208-.205.369-.458.483-.761l1.295.363a2.86 2.86 0 0 1-.687 1.159c-.322.33-.72.587-1.193.773a4.425 4.425 0 0 1-1.597.273zm5.403-.182v-8.727h1.296v1.318h.091c.159-.432.447-.782.863-1.051a2.544 2.544 0 0 1 1.409-.404c.099 0 .222.002.37.006a5.5 5.5 0 0 1 .335.017v1.364a3.416 3.416 0 0 0-.312-.051 3.035 3.035 0 0 0-.506-.04 2.38 2.38 0 0 0-1.137.267c-.329.174-.59.417-.784.727a1.963 1.963 0 0 0-.284 1.051V467h-1.341zm10.817 3.273a2.93 2.93 0 0 1-.608-.057 1.601 1.601 0 0 1-.369-.102l.341-1.182c.326.083.613.113.863.091a1.04 1.04 0 0 0 .665-.335c.197-.197.377-.518.54-.961l.25-.682-3.227-8.772h1.454l2.409 6.954h.091l2.409-6.954h1.455l-3.705 10c-.166.45-.373.824-.619 1.119a2.321 2.321 0 0 1-.858.665 2.646 2.646 0 0 1-1.091.216zm11.026-3.091c-.788 0-1.479-.188-2.074-.563-.591-.375-1.053-.899-1.387-1.574-.329-.674-.494-1.462-.494-2.363 0-.909.165-1.703.494-2.381.334-.678.796-1.204 1.387-1.579.595-.375 1.286-.563 2.074-.563.788 0 1.477.188 2.068.563.595.375 1.057.901 1.386 1.579.334.678.5 1.472.5 2.381 0 .901-.166 1.689-.5 2.363a3.758 3.758 0 0 1-1.386 1.574c-.591.375-1.28.563-2.068.563zm0-1.205c.598 0 1.091-.153 1.477-.46a2.72 2.72 0 0 0 .858-1.21c.186-.5.278-1.042.278-1.625 0-.584-.092-1.127-.278-1.631a2.748 2.748 0 0 0-.858-1.221c-.386-.311-.879-.466-1.477-.466-.599 0-1.091.155-1.478.466-.386.31-.672.717-.857 1.221a4.672 4.672 0 0 0-.279 1.631c0 .583.093 1.125.279 1.625.185.5.471.903.857 1.21.387.307.879.46 1.478.46zm11.251-2.545v-5.159h1.341V467h-1.341v-1.477h-.091c-.204.443-.522.82-.954 1.13-.432.307-.978.461-1.637.461a2.92 2.92 0 0 1-1.454-.358c-.424-.243-.758-.606-1-1.091-.243-.489-.364-1.104-.364-1.847v-5.545h1.341v5.454c0 .637.178 1.144.534 1.523.36.379.818.568 1.375.568.333 0 .672-.085 1.017-.256.349-.17.64-.431.875-.784.239-.352.358-.801.358-1.346zm3.547 3.568v-8.727h1.295v1.318h.091c.159-.432.447-.782.864-1.051a2.542 2.542 0 0 1 1.409-.404c.099 0 .222.002.369.006.148.004.26.01.336.017v1.364a3.462 3.462 0 0 0-.313-.051 3.017 3.017 0 0 0-.506-.04c-.424 0-.803.089-1.136.267a2.019 2.019 0 0 0-.784.727 1.963 1.963 0 0 0-.284 1.051V467h-1.341zm9.953 3.273v-12h1.296v1.386h.159c.098-.151.235-.345.409-.579.178-.239.432-.451.761-.637.333-.189.784-.284 1.352-.284.735 0 1.383.184 1.944.551.56.368.998.888 1.312 1.563.314.674.472 1.469.472 2.386 0 .924-.158 1.725-.472 2.403-.314.675-.75 1.197-1.307 1.569-.557.367-1.199.551-1.926.551-.56 0-1.009-.093-1.346-.279-.338-.189-.597-.403-.779-.642a8.279 8.279 0 0 1-.42-.602h-.114v4.614h-1.341zm1.318-7.637c0 .659.097 1.241.29 1.745.193.5.475.892.847 1.176.371.28.825.42 1.363.42.561 0 1.029-.147 1.404-.443.379-.299.663-.701.852-1.204.193-.508.29-1.072.29-1.694 0-.613-.095-1.166-.284-1.659-.186-.496-.468-.888-.847-1.176-.375-.292-.846-.437-1.415-.437-.545 0-1.003.138-1.375.414-.371.273-.651.656-.841 1.148-.189.489-.284 1.059-.284 1.71zm10.75 4.569a3.546 3.546 0 0 1-1.505-.313 2.58 2.58 0 0 1-1.074-.915c-.265-.401-.398-.886-.398-1.454 0-.5.099-.906.296-1.216.196-.315.46-.561.789-.739.33-.178.693-.31 1.091-.398.402-.09.805-.162 1.21-.215.531-.069.961-.12 1.29-.154.334-.038.576-.1.727-.187.156-.087.233-.239.233-.455v-.045c0-.561-.153-.997-.46-1.307-.303-.311-.763-.466-1.38-.466-.641 0-1.143.14-1.506.42-.364.281-.619.58-.767.898l-1.273-.454c.227-.531.53-.944.909-1.239a3.406 3.406 0 0 1 1.25-.625 5.205 5.205 0 0 1 1.341-.182c.28 0 .602.034.966.102a3.09 3.09 0 0 1 1.062.404c.345.204.631.513.858.926.228.413.341.966.341 1.659V467h-1.341v-1.182h-.068c-.091.19-.242.392-.454.608-.212.216-.495.4-.847.551-.352.152-.782.228-1.29.228zm.205-1.205c.53 0 .977-.104 1.341-.312a2.133 2.133 0 0 0 1.113-1.847v-1.227c-.056.068-.181.13-.375.187a6.143 6.143 0 0 1-.659.142 27.7 27.7 0 0 1-.721.102c-.231.027-.419.05-.563.069a5.114 5.114 0 0 0-.977.221 1.684 1.684 0 0 0-.727.449c-.182.197-.273.466-.273.807 0 .466.172.818.517 1.057.348.235.79.352 1.324.352zm12.175-5.773-1.205.341a2.224 2.224 0 0 0-.335-.585 1.63 1.63 0 0 0-.591-.477c-.25-.125-.57-.188-.96-.188-.534 0-.979.123-1.336.37-.352.242-.528.551-.528.926 0 .333.121.596.364.789.242.194.621.355 1.136.483l1.295.319c.781.189 1.362.479 1.745.869.382.386.574.884.574 1.494 0 .5-.144.947-.432 1.341-.284.394-.682.705-1.193.932-.512.227-1.106.341-1.784.341-.891 0-1.627-.193-2.211-.58-.583-.386-.952-.95-1.108-1.693l1.273-.318c.121.47.351.822.688 1.057.341.235.786.352 1.335.352.625 0 1.121-.133 1.489-.398.371-.269.556-.591.556-.966 0-.303-.106-.556-.318-.761-.212-.208-.538-.364-.977-.466l-1.455-.341c-.799-.189-1.386-.483-1.761-.88-.371-.402-.557-.904-.557-1.506 0-.493.138-.928.415-1.307a2.82 2.82 0 0 1 1.142-.892c.485-.216 1.034-.324 1.648-.324.863 0 1.541.189 2.034.568a3.07 3.07 0 0 1 1.057 1.5zm8.109 0-1.205.341a2.197 2.197 0 0 0-.335-.585 1.63 1.63 0 0 0-.591-.477c-.25-.125-.57-.188-.96-.188-.534 0-.979.123-1.335.37-.352.242-.529.551-.529.926 0 .333.122.596.364.789.242.194.621.355 1.136.483l1.296.319c.78.189 1.362.479 1.744.869.383.386.574.884.574 1.494 0 .5-.144.947-.432 1.341-.284.394-.682.705-1.193.932-.511.227-1.106.341-1.784.341-.89 0-1.627-.193-2.21-.58-.584-.386-.953-.95-1.108-1.693l1.273-.318c.121.47.35.822.687 1.057.341.235.786.352 1.335.352.625 0 1.121-.133 1.489-.398.371-.269.557-.591.557-.966 0-.303-.106-.556-.318-.761-.213-.208-.538-.364-.978-.466l-1.454-.341c-.8-.189-1.387-.483-1.762-.88-.371-.402-.556-.904-.556-1.506 0-.493.138-.928.414-1.307a2.827 2.827 0 0 1 1.142-.892c.485-.216 1.034-.324 1.648-.324.864 0 1.542.189 2.034.568.496.379.849.879 1.057 1.5zm3.905 6.773-2.659-8.727h1.409l1.886 6.682h.091l1.864-6.682h1.432l1.84 6.659h.091l1.887-6.659h1.409L193.827 467h-1.318l-1.91-6.705h-.136L188.554 467h-1.318zm14.021.182c-.788 0-1.479-.188-2.074-.563-.591-.375-1.053-.899-1.386-1.574-.33-.674-.494-1.462-.494-2.363 0-.909.164-1.703.494-2.381.333-.678.795-1.204 1.386-1.579.595-.375 1.286-.563 2.074-.563.788 0 1.477.188 2.068.563.595.375 1.057.901 1.387 1.579.333.678.5 1.472.5 2.381 0 .901-.167 1.689-.5 2.363-.33.675-.792 1.199-1.387 1.574-.591.375-1.28.563-2.068.563zm0-1.205c.599 0 1.091-.153 1.477-.46.387-.307.673-.71.858-1.21.186-.5.279-1.042.279-1.625 0-.584-.093-1.127-.279-1.631a2.732 2.732 0 0 0-.858-1.221c-.386-.311-.878-.466-1.477-.466-.598 0-1.091.155-1.477.466-.387.31-.673.717-.858 1.221a4.672 4.672 0 0 0-.279 1.631c0 .583.093 1.125.279 1.625.185.5.471.903.858 1.21.386.307.879.46 1.477.46zm5.752 1.023v-8.727h1.295v1.318h.091c.159-.432.447-.782.864-1.051a2.54 2.54 0 0 1 1.409-.404c.098 0 .221.002.369.006a5.5 5.5 0 0 1 .335.017v1.364a3.351 3.351 0 0 0-.312-.051 3.026 3.026 0 0 0-.506-.04c-.424 0-.803.089-1.136.267a1.955 1.955 0 0 0-1.069 1.778V467h-1.34zm8.732.182c-.727 0-1.369-.184-1.926-.551-.556-.372-.992-.894-1.306-1.569-.315-.678-.472-1.479-.472-2.403 0-.917.157-1.712.472-2.386.314-.675.751-1.195 1.312-1.563.561-.367 1.208-.551 1.943-.551.568 0 1.017.095 1.347.284.333.186.587.398.761.637.178.234.316.428.415.579h.114v-4.295h1.34V467h-1.295v-1.341h-.159c-.099.159-.239.36-.421.602-.181.239-.441.453-.778.642-.337.186-.786.279-1.347.279zm.182-1.205c.538 0 .993-.14 1.364-.42.371-.284.653-.676.847-1.176.193-.504.289-1.086.289-1.745 0-.651-.094-1.221-.284-1.71-.189-.492-.469-.875-.841-1.148-.371-.276-.829-.414-1.375-.414-.568 0-1.041.145-1.42.437-.375.288-.657.68-.847 1.176a4.694 4.694 0 0 0-.278 1.659c0 .622.095 1.186.284 1.694.193.503.477.905.852 1.204.379.296.849.443 1.409.443z"/><g stroke="#002C15" stroke-linecap="round" stroke-linejoin="round" stroke-width="2" clip-path="url(#a)"><path d="M394.666 461s2.667-5.333 7.333-5.333c4.667 0 7.334 5.333 7.334 5.333s-2.667 5.333-7.334 5.333c-4.666 0-7.333-5.333-7.333-5.333z"/><path d="M401.999 463a2 2 0 1 0 .001-3.999 2 2 0 0 0 0 3.999z"/></g><rect width="367" height="43" x="56.5" y="439.5" stroke="#C9CBCE" rx="7.5"/><rect width="367" height="43" x="56.5" y="507.5" fill="#C3F53C" rx="21.5"/><path fill="#002C15" d="M209.648 535v-11.636h4.363c.894 0 1.644.155 2.25.466.61.31 1.07.746 1.381 1.306.314.557.472 1.207.472 1.949 0 .746-.159 1.394-.478 1.943-.314.546-.778.968-1.392 1.267-.613.296-1.367.444-2.261.444h-3.108v-1.75h2.824c.523 0 .951-.072 1.284-.216.333-.148.58-.362.739-.642.162-.284.244-.633.244-1.046 0-.413-.082-.765-.244-1.057a1.552 1.552 0 0 0-.745-.67c-.333-.155-.763-.233-1.289-.233h-1.932V535h-2.108zm6.011-5.273L218.54 535h-2.352l-2.83-5.273h2.301zm7.793 5.443c-.875 0-1.631-.181-2.267-.545a3.689 3.689 0 0 1-1.461-1.557c-.34-.674-.511-1.468-.511-2.38 0-.898.171-1.686.511-2.364a3.867 3.867 0 0 1 1.444-1.591c.617-.383 1.342-.574 2.176-.574.538 0 1.045.087 1.522.261.482.171.906.436 1.273.796.371.36.663.818.875 1.375.212.553.318 1.212.318 1.977v.631h-7.153v-1.387h5.182a2.214 2.214 0 0 0-.256-1.051c-.167-.31-.4-.555-.699-.733a1.963 1.963 0 0 0-1.034-.267c-.42 0-.79.103-1.108.307a2.114 2.114 0 0 0-.744.796 2.29 2.29 0 0 0-.267 1.074v1.21c0 .507.093.943.278 1.307.186.359.445.636.779.829.333.189.723.284 1.17.284.299 0 .57-.041.813-.125.242-.087.452-.214.63-.381.178-.166.313-.373.404-.619l1.92.216a2.991 2.991 0 0 1-.693 1.33 3.388 3.388 0 0 1-1.295.875c-.527.204-1.129.306-1.807.306zm9.166 3.285c-.739 0-1.373-.101-1.904-.302-.53-.197-.956-.462-1.278-.795a2.752 2.752 0 0 1-.67-1.108l1.852-.449c.083.171.204.339.364.506.159.17.373.31.642.42.272.114.615.171 1.028.171.583 0 1.066-.142 1.449-.426.382-.281.574-.743.574-1.387v-1.653h-.103a2.92 2.92 0 0 1-.465.653 2.384 2.384 0 0 1-.802.563c-.329.151-.744.227-1.244.227-.67 0-1.278-.157-1.824-.472-.541-.318-.973-.791-1.295-1.42-.318-.633-.478-1.424-.478-2.375 0-.958.16-1.767.478-2.426.322-.663.755-1.165 1.301-1.506a3.34 3.34 0 0 1 1.824-.517c.511 0 .932.087 1.261.261.333.171.599.377.796.62.197.238.346.464.448.676h.114v-1.443h2.028v8.869c0 .746-.178 1.364-.534 1.852-.356.489-.842.854-1.46 1.097-.617.242-1.318.364-2.102.364zm.017-5.194c.436 0 .807-.106 1.114-.318.306-.212.539-.517.698-.915.16-.397.239-.875.239-1.431 0-.55-.079-1.031-.239-1.444-.155-.412-.386-.733-.693-.96-.303-.231-.676-.346-1.119-.346-.458 0-.841.119-1.148.358-.307.238-.538.566-.693.983a3.984 3.984 0 0 0-.233 1.409c0 .534.078 1.001.233 1.403.159.398.392.708.699.932.311.22.691.329 1.142.329zm5.937 1.739v-8.727h2.057V535h-2.057zm1.035-9.966c-.326 0-.607-.108-.841-.324a1.043 1.043 0 0 1-.353-.79c0-.31.118-.573.353-.789.234-.22.515-.33.841-.33.329 0 .609.11.84.33.235.216.353.479.353.789 0 .307-.118.571-.353.79a1.185 1.185 0 0 1-.84.324zm9.785 3.546-1.875.204a1.52 1.52 0 0 0-.278-.534 1.376 1.376 0 0 0-.523-.403c-.22-.103-.489-.154-.807-.154-.428 0-.788.093-1.079.279-.288.185-.43.426-.427.721a.755.755 0 0 0 .279.619c.193.16.511.29.954.393l1.489.318c.826.178 1.439.46 1.841.846.405.387.61.892.614 1.517a2.377 2.377 0 0 1-.483 1.455c-.315.417-.752.742-1.313.977-.561.235-1.204.352-1.932.352-1.068 0-1.928-.223-2.579-.67-.652-.451-1.04-1.078-1.165-1.881l2.006-.193c.091.394.284.691.579.892.296.201.68.301 1.154.301.488 0 .88-.1 1.176-.301.299-.201.449-.449.449-.744a.774.774 0 0 0-.29-.619c-.19-.163-.485-.288-.887-.375l-1.488-.313c-.837-.174-1.457-.468-1.858-.881-.402-.416-.601-.943-.597-1.579-.004-.538.142-1.004.438-1.398.299-.398.714-.704 1.244-.92.534-.22 1.15-.33 1.847-.33 1.022 0 1.827.218 2.414.653.591.436.957 1.025 1.097 1.768zm5.992-2.307v1.591h-5.018v-1.591h5.018zm-3.779-2.091h2.057v8.193c0 .277.042.489.125.636a.676.676 0 0 0 .341.296c.14.053.295.079.466.079.129 0 .246-.009.352-.028.11-.019.193-.036.25-.051l.347 1.608c-.11.038-.267.079-.472.125a3.86 3.86 0 0 1-.739.079 3.348 3.348 0 0 1-1.392-.233 2.169 2.169 0 0 1-.983-.806c-.238-.364-.356-.819-.352-1.364v-8.534zm9.019 10.988c-.875 0-1.631-.181-2.267-.545a3.689 3.689 0 0 1-1.461-1.557c-.341-.674-.511-1.468-.511-2.38 0-.898.17-1.686.511-2.364a3.872 3.872 0 0 1 1.443-1.591c.618-.383 1.343-.574 2.177-.574.538 0 1.045.087 1.522.261.481.171.906.436 1.273.796.371.36.663.818.875 1.375.212.553.318 1.212.318 1.977v.631h-7.153v-1.387h5.182a2.214 2.214 0 0 0-.256-1.051c-.167-.31-.4-.555-.699-.733a1.963 1.963 0 0 0-1.034-.267c-.42 0-.79.103-1.108.307a2.114 2.114 0 0 0-.744.796 2.29 2.29 0 0 0-.267 1.074v1.21c0 .507.093.943.278 1.307.186.359.445.636.779.829.333.189.723.284 1.17.284.299 0 .57-.041.812-.125.243-.087.453-.214.631-.381.178-.166.313-.373.404-.619l1.92.216a2.991 2.991 0 0 1-.693 1.33 3.385 3.385 0 0 1-1.296.875c-.526.204-1.128.306-1.806.306zm5.37-.17v-8.727h1.995v1.454h.091c.159-.504.431-.892.818-1.165.39-.276.835-.414 1.335-.414.114 0 .24.005.381.017.144.007.263.021.358.04v1.892a2.147 2.147 0 0 0-.415-.08 3.906 3.906 0 0 0-.54-.04c-.375 0-.712.082-1.011.245a1.78 1.78 0 0 0-.699.664 1.869 1.869 0 0 0-.256.983V535h-2.057z"/><rect width="367" height="43" x="56.5" y="507.5" stroke="#C3F53C" rx="21.5"/><path fill="#E5EBE5" d="M56 576.5h166v1H56z"/><path fill="#6A6C6A" d="M240.139 576.909c0 1.074-.194 2.002-.581 2.784-.388.782-.92 1.386-1.596 1.81-.676.424-1.449.636-2.317.636-.868 0-1.641-.212-2.317-.636-.676-.424-1.208-1.028-1.596-1.81-.387-.782-.581-1.71-.581-2.784 0-1.074.194-2.002.581-2.784.388-.782.92-1.385 1.596-1.81.676-.424 1.449-.636 2.317-.636.868 0 1.641.212 2.317.636.676.425 1.208 1.028 1.596 1.81.387.782.581 1.71.581 2.784zm-1.193 0c0-.882-.147-1.626-.442-2.232-.292-.607-.688-1.066-1.189-1.377a3.077 3.077 0 0 0-1.67-.468c-.617 0-1.175.156-1.675.468-.498.311-.894.77-1.189 1.377-.291.606-.437 1.35-.437 2.232 0 .882.146 1.626.437 2.232.295.607.691 1.066 1.189 1.377.5.312 1.058.468 1.675.468.616 0 1.173-.156 1.67-.468.501-.311.897-.77 1.189-1.377.295-.606.442-1.35.442-2.232zm3.016 5.091v-10.182h3.441c.795 0 1.448.136 1.959.408.51.268.888.638 1.133 1.109.245.47.368 1.005.368 1.605 0 .6-.123 1.132-.368 1.596-.245.464-.621.829-1.128 1.094-.508.262-1.155.393-1.944.393h-2.784v-1.114h2.744c.543 0 .981-.079 1.312-.239.335-.159.577-.384.726-.676.153-.295.229-.646.229-1.054 0-.407-.076-.764-.229-1.069a1.562 1.562 0 0 0-.731-.706c-.334-.169-.777-.253-1.327-.253h-2.168V582h-1.233zm4.793-4.574 2.506 4.574h-1.432l-2.466-4.574h1.392z"/><path fill="#E5EBE5" d="M258 576.5h166v1H258z"/><rect width="113.667" height="43" x="56.5" y="603.5" fill="#fff" rx="21.5"/><g clip-path="url(#b)"><path fill="#4285F4" d="M125.1 625.276c0-.815-.066-1.635-.207-2.438h-11.319v4.621h6.482a5.555 5.555 0 0 1-2.399 3.647v2.998h3.867c2.271-2.09 3.576-5.177 3.576-8.828z"/><path fill="#34A853" d="M113.573 637.001c3.237 0 5.966-1.063 7.955-2.897l-3.867-2.998c-1.076.731-2.465 1.146-4.083 1.146-3.131 0-5.786-2.112-6.738-4.952h-3.99v3.091a12.002 12.002 0 0 0 10.723 6.61z"/><path fill="#FBBC04" d="M106.837 627.3a7.182 7.182 0 0 1 0-4.594v-3.091h-3.986a12.01 12.01 0 0 0 0 10.776l3.986-3.091z"/><path fill="#EA4335" d="M113.573 617.75a6.516 6.516 0 0 1 4.603 1.799l3.427-3.426a11.537 11.537 0 0 0-8.03-3.122 11.996 11.996 0 0 0-10.723 6.614l3.986 3.091c.948-2.844 3.606-4.956 6.737-4.956z"/></g><rect width="113.667" height="43" x="56.5" y="603.5" stroke="#E5EBE5" rx="21.5"/><rect width="113.667" height="43" x="183.166" y="603.5" fill="#fff" rx="21.5"/><g clip-path="url(#c)"><path fill="#1877F2" d="M252 625c0-6.627-5.373-12-12-12s-12 5.373-12 12c0 5.989 4.388 10.954 10.125 11.854v-8.385h-3.047V625h3.047v-2.644c0-3.007 1.792-4.668 4.533-4.668 1.312 0 2.686.234 2.686.234v2.953h-1.513c-1.491 0-1.956.925-1.956 1.875V625h3.328l-.532 3.469h-2.796v8.385c5.737-.9 10.125-5.865 10.125-11.854z"/><path fill="#fff" d="m244.671 628.469.532-3.469h-3.328v-2.25c0-.949.465-1.875 1.956-1.875h1.513v-2.953s-1.373-.234-2.686-.234c-2.741 0-4.533 1.661-4.533 4.668V625h-3.047v3.469h3.047v8.385c1.242.195 2.508.195 3.75 0v-8.385h2.796z"/></g><rect width="113.667" height="43" x="183.166" y="603.5" stroke="#E5EBE5" rx="21.5"/><rect width="113.667" height="43" x="309.834" y="603.5" fill="#fff" rx="21.5"/><path fill="#000" d="M375.51 630.145a12.007 12.007 0 0 1-1.183 2.127c-.622.886-1.131 1.5-1.524 1.841-.608.559-1.26.846-1.958.862-.501 0-1.105-.142-1.809-.432-.705-.287-1.354-.43-1.947-.43-.622 0-1.289.143-2.003.43-.714.29-1.29.44-1.73.455-.669.029-1.336-.266-2.002-.885-.425-.371-.957-1.006-1.594-1.907-.683-.961-1.245-2.076-1.685-3.347-.472-1.373-.708-2.702-.708-3.99 0-1.474.319-2.746.957-3.811a5.612 5.612 0 0 1 2.004-2.027 5.383 5.383 0 0 1 2.708-.764c.532 0 1.229.164 2.096.487.864.325 1.418.489 1.662.489.181 0 .798-.192 1.842-.576.988-.355 1.822-.502 2.505-.444 1.851.149 3.242.879 4.166 2.193-1.655 1.003-2.474 2.408-2.457 4.21.014 1.404.524 2.572 1.525 3.5.453.43.96.763 1.523.999-.122.355-.251.694-.388 1.02zm-4.245-16.705c0 1.101-.402 2.128-1.203 3.079-.967 1.13-2.137 1.783-3.405 1.68a3.457 3.457 0 0 1-.026-.417c0-1.056.46-2.186 1.277-3.11a4.91 4.91 0 0 1 1.555-1.168c.627-.306 1.221-.475 1.779-.504.016.147.023.294.023.44z"/><rect width="113.667" height="43" x="309.834" y="603.5" stroke="#E5EBE5" rx="21.5"/><path stroke="#121511" d="M.5 35.5h479V663c0 8.56-6.94 15.5-15.5 15.5H16C7.44 678.5.5 671.56.5 663V35.5z"/><path fill="#121511" d="M0 16C0 7.163 7.163 0 16 0h448c8.837 0 16 7.163 16 16v19H0V16z"/><circle cx="21" cy="18" r="4" fill="#6A6C6A"/><circle cx="33" cy="18" r="4" fill="#6A6C6A"/><circle cx="45" cy="18" r="4" fill="#6A6C6A"/><defs><clipPath id="a"><path fill="#fff" d="M394 453h16v16h-16z"/></clipPath><clipPath id="b"><path fill="#fff" d="M101.334 613h24v24h-24z"/></clipPath><clipPath id="c"><path fill="#fff" d="M228 613h24v24h-24z"/></clipPath></defs></svg>